<svg width="226" height="68" viewBox="0 0 226 68" fill="none" xmlns="http://www.w3.org/2000/svg">
<g filter="url(#filter0_ii_150_6290)">
<path d="M2.747 7.35H13.668C17.4647 7.35 20.234 8.24333 21.976 10.03C23.718 11.772 24.589 14.4743 24.589 18.137V21.018C24.589 25.8867 22.981 28.9687 19.765 30.264V30.398C21.5517 30.934 22.8023 32.0283 23.517 33.681C24.2763 35.3337 24.656 37.5447 24.656 40.314V48.555C24.656 49.895 24.7007 50.9893 24.79 51.838C24.8793 52.642 25.1027 53.446 25.46 54.25H17.956C17.688 53.4907 17.5093 52.776 17.42 52.106C17.3307 51.436 17.286 50.23 17.286 48.488V39.912C17.286 37.768 16.9287 36.2717 16.214 35.423C15.544 34.5743 14.3603 34.15 12.663 34.15H10.117V54.25H2.747V7.35ZM12.797 27.45C14.271 27.45 15.3653 27.0703 16.08 26.311C16.8393 25.5517 17.219 24.2787 17.219 22.492V18.874C17.219 17.1767 16.9063 15.9483 16.281 15.189C15.7003 14.4297 14.7623 14.05 13.467 14.05H10.117V27.45H12.797ZM29.7695 7.35H49.2665V14.05H37.1395V27.115H46.6535V33.815H37.1395V54.25H29.7695V7.35ZM52.8007 7.35H63.6547C67.3174 7.35 70.0644 8.33266 71.8957 10.298C73.727 12.2633 74.6427 15.1443 74.6427 18.941V23.564C74.6427 27.3607 73.727 30.2417 71.8957 32.207C70.0644 34.1723 67.3174 35.155 63.6547 35.155H60.1707V54.25H52.8007V7.35ZM63.6547 28.455C64.8607 28.455 65.754 28.12 66.3347 27.45C66.96 26.78 67.2727 25.641 67.2727 24.033V18.472C67.2727 16.864 66.96 15.725 66.3347 15.055C65.754 14.385 64.8607 14.05 63.6547 14.05H60.1707V28.455H63.6547ZM95.1379 14.05H87.4329V7.35H110.213V14.05H102.508V54.25H95.1379V14.05ZM113.781 7.35H121.151V54.25H113.781V7.35ZM137.123 54.92C133.549 54.92 130.825 53.915 128.949 51.905C127.073 49.8503 126.135 46.9247 126.135 43.128V18.472C126.135 14.6753 127.073 11.772 128.949 9.762C130.825 7.70733 133.549 6.68 137.123 6.68C140.696 6.68 143.421 7.70733 145.297 9.762C147.173 11.772 148.111 14.6753 148.111 18.472V22.492H141.143V18.003C141.143 14.921 139.87 13.38 137.324 13.38C134.778 13.38 133.505 14.921 133.505 18.003V43.664C133.505 46.7013 134.778 48.22 137.324 48.22C139.87 48.22 141.143 46.7013 141.143 43.664V34.485H137.458V27.785H148.111V43.128C148.111 46.9247 147.173 49.8503 145.297 51.905C143.421 53.915 140.696 54.92 137.123 54.92ZM152.843 7.35H172.943V14.05H160.213V26.445H170.33V33.145H160.213V47.55H172.943V54.25H152.843V7.35ZM177.183 7.35H188.104C191.9 7.35 194.67 8.24333 196.412 10.03C198.154 11.772 199.025 14.4743 199.025 18.137V21.018C199.025 25.8867 197.417 28.9687 194.201 30.264V30.398C195.987 30.934 197.238 32.0283 197.953 33.681C198.712 35.3337 199.092 37.5447 199.092 40.314V48.555C199.092 49.895 199.136 50.9893 199.226 51.838C199.315 52.642 199.538 53.446 199.896 54.25H192.392C192.124 53.4907 191.945 52.776 191.856 52.106C191.766 51.436 191.722 50.23 191.722 48.488V39.912C191.722 37.768 191.364 36.2717 190.65 35.423C189.98 34.5743 188.796 34.15 187.099 34.15H184.553V54.25H177.183V7.35ZM187.233 27.45C188.707 27.45 189.801 27.0703 190.516 26.311C191.275 25.5517 191.655 24.2787 191.655 22.492V18.874C191.655 17.1767 191.342 15.9483 190.717 15.189C190.136 14.4297 189.198 14.05 187.903 14.05H184.553V27.45H187.233Z" fill="#374151"/>
<g clip-path="url(#clip0_150_6290)" filter="url(#filter1_ii_150_6290)">
<path fill-rule="evenodd" clip-rule="evenodd" d="M215.92 0.410027C218.629 0.114273 219.714 1.28761 219.173 3.93003C218.713 4.92231 218.251 5.91787 217.787 6.9167C216.479 8.91038 214.79 9.31927 212.72 8.14336C211.338 6.69812 211.178 5.11589 212.24 3.39669C213.163 2.00493 214.39 1.00937 215.92 0.410027Z" fill="#FC894D"/>
<path fill-rule="evenodd" clip-rule="evenodd" d="M207.92 2.11667C210.173 1.86388 211.293 2.85943 211.28 5.10334C210.853 8.48241 208.933 10.1535 205.52 10.1167C203.309 10.1104 202.278 9.0082 202.427 6.81C203.04 4.96006 204.231 3.62673 206 2.81C206.653 2.57701 207.293 2.3459 207.92 2.11667Z" fill="#FC894D"/>
<path fill-rule="evenodd" clip-rule="evenodd" d="M222.213 4.67668C224.653 4.67991 225.773 5.8888 225.573 8.30335C224.569 11.4049 222.453 12.7027 219.227 12.1967C217.529 11.3743 216.942 10.0409 217.467 8.19668C217.831 7.61822 218.276 7.10267 218.8 6.65001C219.328 6.29958 219.826 5.90847 220.293 5.47668C220.906 5.11644 221.546 4.84977 222.213 4.67668Z" fill="#FC894D"/>
<path fill-rule="evenodd" clip-rule="evenodd" d="M211.12 9.90333C215.762 9.22829 217.38 11.1127 215.973 15.5567C215.889 16.5921 215.925 17.6232 216.08 18.65C216.864 20.7625 216.277 22.3802 214.32 23.5033C213.538 23.5745 212.755 23.5745 211.973 23.5033C211.815 23.2269 211.851 22.978 212.08 22.7567C212.024 22.6829 211.953 22.6295 211.867 22.5967C211.668 22.8126 211.491 23.0437 211.333 23.29C210.38 23.4049 209.456 23.2982 208.56 22.97C206.709 21.7236 205.02 20.2836 203.493 18.65C203.056 18.0948 202.7 17.4903 202.427 16.8367C202.26 15.5263 202.225 14.2107 202.32 12.89C202.77 11.819 203.57 11.1611 204.72 10.9167C206.881 10.6965 209.015 10.3588 211.12 9.90333Z" fill="#FF8A4C"/>
<path fill-rule="evenodd" clip-rule="evenodd" d="M219.12 13.3167C220.294 13.2989 221.467 13.3167 222.64 13.37C224.503 13.7396 225.267 14.8596 224.933 16.73C224.714 17.3462 224.412 17.9152 224.027 18.4367C223.151 19.3655 222.191 20.2011 221.147 20.9433C218.6 21.7059 217.018 20.7992 216.4 18.2233C215.959 15.7948 216.866 14.1592 219.12 13.3167Z" fill="#FC894D"/>
</g>
</g>
<defs>
<filter id="filter0_ii_150_6290" x="0" y="0.25" width="226" height="71" filterUnits="userSpaceOnUse" color-interpolation-filters="sRGB">
<feFlood flood-opacity="0" result="BackgroundImageFix"/>
<feBlend mode="normal" in="SourceGraphic" in2="BackgroundImageFix" result="shape"/>
<feColorMatrix in="SourceAlpha" type="matrix" values="0 0 0 0 0 0 0 0 0 0 0 0 0 0 0 0 0 0 127 0" result="hardAlpha"/>
<feMorphology radius="2" operator="dilate" in="SourceAlpha" result="effect1_innerShadow_150_6290"/>
<feOffset dy="2"/>
<feGaussianBlur stdDeviation="2"/>
<feComposite in2="hardAlpha" operator="arithmetic" k2="-1" k3="1"/>
<feColorMatrix type="matrix" values="0 0 0 0 0 0 0 0 0 0 0 0 0 0 0 0 0 0 0.05 0"/>
<feBlend mode="normal" in2="shape" result="effect1_innerShadow_150_6290"/>
<feColorMatrix in="SourceAlpha" type="matrix" values="0 0 0 0 0 0 0 0 0 0 0 0 0 0 0 0 0 0 127 0" result="hardAlpha"/>
<feMorphology radius="1" operator="dilate" in="SourceAlpha" result="effect2_innerShadow_150_6290"/>
<feOffset dy="4"/>
<feGaussianBlur stdDeviation="3"/>
<feComposite in2="hardAlpha" operator="arithmetic" k2="-1" k3="1"/>
<feColorMatrix type="matrix" values="0 0 0 0 0 0 0 0 0 0 0 0 0 0 0 0 0 0 0.1 0"/>
<feBlend mode="normal" in2="effect1_innerShadow_150_6290" result="effect2_innerShadow_150_6290"/>
</filter>
<filter id="filter1_ii_150_6290" x="202" y="0.25" width="24" height="26.8829" filterUnits="userSpaceOnUse" color-interpolation-filters="sRGB">
<feFlood flood-opacity="0" result="BackgroundImageFix"/>
<feBlend mode="normal" in="SourceGraphic" in2="BackgroundImageFix" result="shape"/>
<feColorMatrix in="SourceAlpha" type="matrix" values="0 0 0 0 0 0 0 0 0 0 0 0 0 0 0 0 0 0 127 0" result="hardAlpha"/>
<feOffset dy="1.15315"/>
<feGaussianBlur stdDeviation="0.864865"/>
<feComposite in2="hardAlpha" operator="arithmetic" k2="-1" k3="1"/>
<feColorMatrix type="matrix" values="0 0 0 0 0 0 0 0 0 0 0 0 0 0 0 0 0 0 0.05 0"/>
<feBlend mode="normal" in2="shape" result="effect1_innerShadow_150_6290"/>
<feColorMatrix in="SourceAlpha" type="matrix" values="0 0 0 0 0 0 0 0 0 0 0 0 0 0 0 0 0 0 127 0" result="hardAlpha"/>
<feMorphology radius="0.864865" operator="dilate" in="SourceAlpha" result="effect2_innerShadow_150_6290"/>
<feOffset dy="2.88288"/>
<feGaussianBlur stdDeviation="2.16216"/>
<feComposite in2="hardAlpha" operator="arithmetic" k2="-1" k3="1"/>
<feColorMatrix type="matrix" values="0 0 0 0 0 0 0 0 0 0 0 0 0 0 0 0 0 0 0.1 0"/>
<feBlend mode="normal" in2="effect1_innerShadow_150_6290" result="effect2_innerShadow_150_6290"/>
</filter>
<clipPath id="clip0_150_6290">
<rect width="24" height="24" fill="white" transform="translate(202 0.25)"/>
</clipPath>
</defs>
</svg>
