<svg width="200" height="201" viewBox="0 0 200 201" fill="none" xmlns="http://www.w3.org/2000/svg">
<rect y="0.25" width="200" height="200" rx="100" fill="#FC894D"/>
<g clip-path="url(#clip0_5727_120629)">
<rect width="100" height="100" transform="translate(50 50.25)" fill="#FC894D"/>
<path fill-rule="evenodd" clip-rule="evenodd" d="M108 50.9169C119.289 49.6846 123.808 54.5734 121.555 65.5835C119.637 69.718 117.711 73.8662 115.778 78.028C110.328 86.335 103.291 88.0387 94.6666 83.1391C88.9071 77.1173 88.2404 70.5246 92.6666 63.3613C96.5141 57.5623 101.625 53.4141 108 50.9169Z" fill="white"/>
<path fill-rule="evenodd" clip-rule="evenodd" d="M74.6666 58.0276C84.0542 56.9743 88.7208 61.1224 88.6666 70.472C86.8856 84.5515 78.8856 91.5144 64.6666 91.3609C55.4547 91.3349 51.1584 86.7423 51.7777 77.5831C54.3348 69.875 59.2978 64.3195 66.6666 60.9164C69.3869 59.9456 72.0535 58.9827 74.6666 58.0276Z" fill="white"/>
<path fill-rule="evenodd" clip-rule="evenodd" d="M134.222 68.6944C144.386 68.7079 149.052 73.7449 148.222 83.8055C144.036 96.7287 135.221 102.136 121.778 100.028C114.703 96.6011 112.259 91.0455 114.444 83.3611C115.964 80.9508 117.815 78.8027 120 76.9167C122.202 75.4565 124.275 73.8269 126.222 72.0278C128.773 70.5267 131.44 69.4156 134.222 68.6944Z" fill="white"/>
<path fill-rule="evenodd" clip-rule="evenodd" d="M87.9998 90.4721C107.341 87.6595 114.082 95.5112 108.222 114.028C107.873 118.342 108.021 122.638 108.666 126.917C111.933 135.719 109.489 142.459 101.333 147.139C98.074 147.435 94.8144 147.435 91.5553 147.139C90.8968 145.987 91.045 144.95 91.9998 144.028C91.7663 143.72 91.47 143.498 91.1109 143.361C90.2851 144.261 89.5443 145.224 88.8887 146.25C84.9184 146.729 81.0666 146.284 77.3331 144.917C69.6204 139.723 62.5834 133.723 56.222 126.917C54.3983 124.603 52.9169 122.085 51.7776 119.361C51.0838 113.901 50.9357 108.42 51.3331 102.917C53.2065 98.4539 56.5398 95.713 61.3331 94.6944C70.3393 93.7772 79.2282 92.3698 87.9998 90.4721Z" fill="white"/>
<path fill-rule="evenodd" clip-rule="evenodd" d="M121.333 104.694C126.224 104.62 131.113 104.694 136 104.917C143.762 106.457 146.947 111.123 145.556 118.917C144.642 121.484 143.383 123.855 141.778 126.028C138.129 129.898 134.129 133.379 129.778 136.472C119.167 139.65 112.575 135.872 110 125.139C108.164 115.02 111.942 108.205 121.333 104.694Z" fill="white"/>
</g>
<defs>
<clipPath id="clip0_5727_120629">
<rect width="100" height="100" fill="white" transform="translate(50 50.25)"/>
</clipPath>
</defs>
</svg>
