<svg width="534" height="506" viewBox="0 0 534 506" fill="none" xmlns="http://www.w3.org/2000/svg">
<path d="M251.608 459.825C258.722 461.479 278.903 462.604 282.873 449.899" stroke="black" stroke-width="5" stroke-linecap="round"/>
<path d="M262.03 432.033C273.94 443.447 292.799 461.81 302.724 446.921L308.679 436.996" stroke="black" stroke-width="5" stroke-linecap="round"/>
<path d="M262.03 401.265C275.595 414.168 317.215 445.135 335.478 434.019C338.786 431.868 345.502 424.986 345.899 414.664" stroke="black" stroke-width="5" stroke-linecap="round"/>
<path d="M294.784 383.895C311.491 396.963 348.381 420.321 362.276 409.205C376.172 398.088 361.78 382.737 352.847 376.451L292.799 327.816" stroke="black" stroke-width="5" stroke-linecap="round"/>
<path d="M122.082 336.749C129.526 340.659 137.739 350.8 140.444 360.074C143.918 371.984 153.678 382.24 157.813 385.384" stroke="black" stroke-width="5" stroke-linecap="round"/>
<path d="M270.963 270.25C261.037 266.28 233.246 258.24 211.41 261.813C189.574 265.386 191.56 258.339 181.138 252.384L122.082 216.156" stroke="black" stroke-width="5" stroke-linecap="round"/>
<path d="M350.366 267.272L372.202 255.857M369.721 395.806C378.852 393.424 394.038 379.925 400.489 373.474L425.799 360.074" stroke="black" stroke-width="5" stroke-linecap="round"/>
<path d="M352.351 320.372C337.794 329.14 301.334 339.925 271.955 316.898" stroke="black" stroke-width="5" stroke-linecap="round"/>
<path d="M271.955 316.899C261.037 332.283 235.43 361.663 220.343 356.104C205.256 350.546 212.072 334.269 217.365 326.824C232.75 296.056 280.888 241.069 350.366 267.272" stroke="black" stroke-width="5" stroke-linecap="round"/>
<path d="M252.601 441.958C252.204 456.648 247.473 462.967 245.157 464.29C233.867 470.742 221.336 460.816 224.833 452.749C227.233 448.28 230.449 439.061 231.757 435.01C234.802 425.581 252.998 427.268 252.601 441.958Z" stroke="black" stroke-width="5" stroke-linecap="round"/>
<path d="M211.41 455.854C194.736 459.427 194.537 442.455 201.981 434.018C204.367 431.314 210.319 425.759 217.862 419.626C225.405 413.493 230.269 418.725 231.757 422.107C233.723 426.574 228.085 452.281 211.41 455.854Z" stroke="black" stroke-width="5" stroke-linecap="round"/>
<path d="M183.619 436.003C165.356 435.606 166.25 419.626 173.694 412.678C179.484 406.558 194.239 395.21 206.944 398.783C219.648 402.356 216.869 414.167 213.892 420.123C211.41 425.582 201.882 436.4 183.619 436.003Z" stroke="black" stroke-width="5" stroke-linecap="round"/>
<path d="M189.575 380.917C170.121 376.153 153.678 387.865 147.888 394.317C143.918 399.478 144.249 405.4 144.91 407.716C149.674 419.627 171.709 411.024 182.13 405.235C192.718 399.114 209.028 385.681 189.575 380.917Z" stroke="black" stroke-width="5" stroke-linecap="round"/>
<path d="M216.373 202.26C219.351 208.877 224.413 225.187 220.839 237.495" stroke="black" stroke-width="5" stroke-linecap="round"/>
<path d="M234.735 214.667C235.562 218.306 237.216 227.074 237.216 233.029" stroke="black" stroke-width="5" stroke-linecap="round"/>
<path d="M296.769 179.432L308.183 219.63" stroke="black" stroke-width="5" stroke-linecap="round"/>
<path d="M329.026 197.298L325.552 221.119" stroke="black" stroke-width="5" stroke-linecap="round"/>
<path d="M359.795 214.667L342.426 228.066" stroke="black" stroke-width="5" stroke-linecap="round"/>
<circle cx="16.3761" cy="258.338" r="15.3844" fill="black"/>
<path d="M41.6606 259.653C67.6864 256.973 108.523 260.142 113.35 280.274C118.177 300.405 99.7457 307.768 89.9269 308.933C52.5444 314.875 2.97681 312.079 2.97681 280.274" stroke="black" stroke-width="5" stroke-linecap="round"/>
<circle cx="32.2567" cy="287.122" r="2.95897" stroke="black" stroke-width="5"/>
<path d="M61.0217 287.122C61.0217 288.556 59.6839 290.081 57.5664 290.081C55.449 290.081 54.1112 288.556 54.1112 287.122C54.1112 285.688 55.449 284.163 57.5664 284.163C59.6839 284.163 61.0217 285.688 61.0217 287.122Z" stroke="black" stroke-width="5"/>
<circle cx="82.8763" cy="287.122" r="2.95897" stroke="black" stroke-width="5"/>
<circle cx="448.131" cy="443.944" r="14.3918" fill="black"/>
<path d="M471.531 433.522C480.259 433.522 505.198 433.522 516.929 433.522C526.432 433.522 531.006 435.624 531.006 450.338C531.006 464.634 530.889 483.152 531.006 490.625C531.089 495.88 528.472 501.695 519.745 502.536C511.017 503.377 475.988 502.886 459.565 502.536C453.465 502.536 442.672 499.078 442.672 485.02L442.672 469.255" stroke="black" stroke-width="5" stroke-linecap="round"/>
<path d="M465.501 458.336L487.337 473.224" stroke="black" stroke-width="5" stroke-linecap="round"/>
<path d="M487.337 473.224L527.038 436.5" stroke="black" stroke-width="5" stroke-linecap="round"/>
<path d="M457.56 486.127L473.567 464.291M497.4 464.291L519.098 486.127" stroke="black" stroke-width="5" stroke-linecap="round"/>
<path d="M455.331 201.312L403.719 240.518C338.211 290.641 402.23 346.885 426.051 359.623L501.981 310.988" stroke="black" stroke-width="5" stroke-linecap="round"/>
<path d="M235.627 74.4627C243.071 73.4701 259.051 67.8126 263.418 53.123" stroke="black" stroke-width="5" stroke-linecap="round"/>
<path d="M211.31 62.5526C216.273 62.718 227.687 60.2698 233.642 49.1533" stroke="black" stroke-width="5" stroke-linecap="round"/>
<path d="M188.978 44.6867C196.918 43.0377 214.188 37.9018 219.747 30.5508" stroke="black" stroke-width="5" stroke-linecap="round"/>
<path d="M260.782 99.4221C210.89 110.555 164.374 60.8996 145.906 32.6761C145.197 31.5924 145.725 30.1543 146.952 29.7425L225.483 3.40614C226.222 3.15848 227.033 3.36099 227.577 3.91807C253.724 30.6738 302.282 42.4719 327.906 45.6999C329.731 45.9298 330.371 48.3027 328.891 49.3944L261.526 99.0828C261.305 99.2455 261.05 99.3624 260.782 99.4221Z" stroke="black" stroke-width="5" stroke-linecap="round"/>
</svg>
