<svg width="394" height="506" viewBox="0 0 394 506" fill="none" xmlns="http://www.w3.org/2000/svg">
<path d="M221.721 355.245C240.508 354.781 283.856 348.728 301.154 342.961C311.592 339.481 320.359 343.378 319.246 356.181C318.132 368.984 278.192 391.911 245.489 397.235C225.542 400.482 178.412 405.028 149.465 397.235C120.519 389.441 87.3054 420.893 74.3167 437.592C65.9669 448.03 45.9272 475.723 32.5675 502.999" stroke="black" stroke-width="5" stroke-linecap="round"/>
<path d="M224.614 345.746C245.257 342.73 292.194 332.813 304.633 326.958C316.462 321.392 324.116 326.958 326.204 335.308C326.668 337.628 326.204 343.101 320.637 346.441" stroke="black" stroke-width="5" stroke-linecap="round"/>
<path d="M205.131 326.958C221.831 319.536 258.013 307.754 269.147 320" stroke="black" stroke-width="5" stroke-linecap="round"/>
<path d="M218.352 335.308C220.439 333.916 248.968 328.35 276.105 317.913C281.903 316.057 294.196 315.268 296.979 326.958" stroke="black" stroke-width="5" stroke-linecap="round"/>
<path d="M143.203 356.182C172.659 362.908 229.763 370.377 222.527 346.44C215.407 322.89 181.209 321.208 164.204 323.369C163.67 323.437 163.133 323.284 162.703 322.96C116 287.712 51.9295 330.574 27.0009 358.965C17.7233 370.098 13.0845 376.36 3.34302 391.668" stroke="black" stroke-width="5" stroke-linecap="round"/>
<path d="M137.637 121.81V121.81C136.74 121.806 136.347 122.926 137.071 123.455C155.614 137.008 196.118 159.548 229.189 153.857C229.383 153.824 229.581 153.847 229.762 153.925L260.538 167.277" stroke="black" stroke-width="5" stroke-linecap="round"/>
<path d="M109.108 71.6982C105.397 72.8579 98.1141 78.0998 98.6707 89.7896C99.5603 104.619 110.825 113.995 116.346 117.873C123.304 122.048 128.954 121.701 134.853 121.797V121.797C135.067 121.801 140.377 121.304 140.58 121.239C144.397 120.012 148.685 116.657 147.378 109.265" stroke="black" stroke-width="5" stroke-linecap="round"/>
<path d="M121.633 50.1279C116.298 51.9835 106.324 58.8953 109.108 71.6984C111.891 84.5015 114.026 88.1849 114.954 90.0404C118.257 97.1971 123.647 101.314 126.009 102.526C126.063 102.553 126.109 102.582 126.158 102.618C129.382 104.993 137.758 108.275 147.378 109.266C150.007 109.536 158.668 109.771 160.599 109.969C168.252 109.969 173.123 107.018 170.34 95.0316" stroke="black" stroke-width="5" stroke-linecap="round"/>
<path d="M134.428 25.7744C129.287 25.7744 118.154 31.341 121.633 50.1281C124.416 65.1579 127.479 71.9493 131.654 76.8201C135.829 81.6908 141.395 87.2574 149.745 89.7899L170.251 95.0092C170.31 95.0242 170.371 95.0338 170.431 95.0379L174.989 95.3417C175.135 95.3514 175.279 95.3307 175.414 95.275C179.611 93.5513 186.402 87.9677 181.473 78.6568" stroke="black" stroke-width="5" stroke-linecap="round"/>
<path d="M304.376 85.8652L280.076 74.0248C279.77 73.8756 279.563 73.593 279.519 73.2553C277.447 57.2753 264.717 24.4351 229.486 16.7281C193.86 8.93493 168.253 4.66723 159.904 3.50753C150.858 1.88395 133.045 3.2292 134.158 21.5989C134.245 23.0351 134.336 24.4269 134.429 25.7739C135.527 41.6543 139.308 46.8992 144.179 54.3025C151.979 65.7917 160.035 70.7553 163.662 72.6446C170.341 76.1237 188.432 84.2228 189.824 66.8273V59.8115" stroke="black" stroke-width="5" stroke-linecap="round"/>
<path d="M229.485 16.7275C219.744 17.4233 187.875 22.4333 171.732 25.7733C155.589 29.1133 159.439 43.4008 163.382 50.127C171.353 61.4186 201.726 59.6067 207.899 54.9804C208.34 54.6494 208.976 54.584 209.415 54.9186C227.129 68.421 232.201 66.8267 255.51 66.8267" stroke="black" stroke-width="5" stroke-linecap="round"/>
<path d="M181.753 90.04L181.473 176.767" stroke="black" stroke-width="5" stroke-linecap="round"/>
<rect x="165.882" y="179.964" width="31.1827" height="17.2663" rx="8.63313" stroke="black" stroke-width="5"/>
<path d="M181.473 198.338L181.473 248.437" stroke="black" stroke-width="5" stroke-linecap="round"/>
<path d="M339.187 211.172L259.862 166.64C249.657 148.316 242.189 108.052 288.391 90.7955C330.816 74.9498 371.174 94.9108 390.657 106.044" stroke="black" stroke-width="5" stroke-linecap="round"/>
<path d="M160.511 224.271H179.473C180.578 224.271 181.473 225.166 181.473 226.271V243.145C181.473 244.25 180.578 245.145 179.473 245.145H166.773C165.669 245.145 164.773 244.25 164.773 243.145V239.491C164.773 238.387 165.669 237.491 166.773 237.491H168.34C169.445 237.491 170.34 236.596 170.34 235.491V234.62C170.34 233.516 169.445 232.62 168.34 232.62H160.511C159.406 232.62 158.511 231.725 158.511 230.62V226.271C158.511 225.166 159.406 224.271 160.511 224.271Z" fill="black"/>
</svg>
