<svg width="588" height="503" viewBox="0 0 588 503" fill="none" xmlns="http://www.w3.org/2000/svg">
<path d="M133.845 316.755L109.778 222.558L422.91 142.554L427.501 160.522" stroke="black" stroke-width="3"/>
<path d="M145.263 361.443L163.586 433.159L170.347 431.431" stroke="black" stroke-width="3"/>
<path d="M279.746 419.56L292.974 416.342" stroke="black" stroke-width="3" stroke-linecap="round"/>
<path d="M314.067 411.337L423.287 385.026" stroke="black" stroke-width="3" stroke-linecap="round"/>
<path d="M271.88 421.348L173.333 444.5L151.042 350.918" stroke="black" stroke-width="3" stroke-linecap="round"/>
<path d="M143.164 318.027L122.896 233.066L437.266 158.074L467.305 283.998" stroke="black" stroke-width="3" stroke-linecap="round"/>
<path d="M45.9643 194.532C42.8284 195.205 39.8355 196.191 37.0053 197.427L38.5247 204.51C34.7527 206.324 31.3683 208.661 28.4166 211.468L22.3338 207.534C20.1313 209.786 18.213 212.286 16.5088 214.921C14.8045 217.556 13.3116 220.33 12.161 223.263L18.2439 227.197C16.8944 231.04 16.1506 235.085 16.0436 239.269L8.96005 240.789C8.99342 243.877 9.32176 247.011 9.99439 250.147C10.667 253.283 11.6529 256.276 12.8891 259.106L19.9726 257.586C21.7862 261.358 24.1237 264.743 26.9307 267.694L22.9965 273.777C25.2485 275.98 27.748 277.898 30.3831 279.602C33.0181 281.307 35.7928 282.799 38.7251 283.95L42.6593 277.867C46.5025 279.217 50.5479 279.961 54.7319 280.068L56.2513 287.151C59.3394 287.118 62.4734 286.789 65.6093 286.117C68.7451 285.444 71.7381 284.458 74.5682 283.222L73.0488 276.139C76.8208 274.325 80.2052 271.987 83.1569 269.18L89.2398 273.115C91.4423 270.863 93.3605 268.363 95.0648 265.728C96.7691 263.093 98.2619 260.318 99.4125 257.386L93.3296 253.452C94.6791 249.609 95.4229 245.563 95.53 241.379L102.613 239.86C102.58 236.772 102.252 233.638 101.579 230.502C100.907 227.366 99.9206 224.373 98.6845 221.543L91.601 223.062C89.7873 219.29 87.4499 215.906 84.6428 212.954L88.5771 206.871C86.325 204.669 83.8256 202.751 81.1905 201.046C78.5554 199.342 75.7808 197.849 72.8485 196.699L68.9143 202.781C65.071 201.432 61.0257 200.688 56.8417 200.581L55.3222 193.498C52.2341 193.531 49.1 193.859 45.9643 194.532ZM50.8755 217.428C63.5142 214.717 75.9719 222.774 78.683 235.413C81.394 248.052 73.3367 260.51 60.698 263.221C48.0593 265.932 35.6016 257.874 32.8906 245.236C30.1796 232.597 38.2368 220.139 50.8755 217.428Z" fill="black"/>
<path d="M228.325 254.567C225.205 255.312 222.235 256.366 219.434 257.666L221.115 264.713C217.386 266.612 214.056 269.027 211.169 271.901L204.998 268.106C202.847 270.408 200.987 272.951 199.343 275.624C197.699 278.298 196.27 281.106 195.187 284.064L201.358 287.858C200.097 291.731 199.446 295.792 199.435 299.977L192.388 301.658C192.492 304.745 192.892 307.871 193.636 310.99C194.38 314.11 195.434 317.08 196.735 319.881L203.782 318.2C205.681 321.929 208.095 325.259 210.969 328.146L207.175 334.317C209.477 336.468 212.02 338.328 214.693 339.972C217.366 341.615 220.174 343.044 223.132 344.128L226.926 337.956C230.799 339.218 234.861 339.869 239.046 339.88L240.727 346.927C243.814 346.823 246.939 346.423 250.059 345.679C253.179 344.935 256.148 343.881 258.949 342.58L257.268 335.533C260.998 333.634 264.328 331.22 267.215 328.346L273.386 332.14C275.536 329.838 277.397 327.295 279.04 324.622C280.684 321.949 282.113 319.141 283.196 316.183L277.025 312.389C278.286 308.516 278.937 304.454 278.949 300.269L285.996 298.588C285.892 295.501 285.492 292.376 284.748 289.256C284.003 286.136 282.949 283.167 281.649 280.366L274.602 282.047C272.702 278.317 270.288 274.987 267.414 272.1L271.208 265.929C268.907 263.779 266.364 261.918 263.691 260.274C261.017 258.631 258.209 257.202 255.251 256.119L251.457 262.29C247.584 261.029 243.523 260.378 239.337 260.366L237.656 253.319C234.57 253.423 231.444 253.823 228.325 254.567V254.567ZM233.758 277.345C246.332 274.346 258.97 282.116 261.97 294.69C264.969 307.263 257.199 319.902 244.625 322.901C232.052 325.9 219.413 318.13 216.414 305.557C213.415 292.983 221.185 280.345 233.758 277.345Z" stroke="black" stroke-width="5" stroke-linecap="round" stroke-linejoin="round"/>
<path d="M253.357 358.707C251.857 359.065 250.429 359.572 249.082 360.198L249.89 363.587C248.097 364.5 246.495 365.661 245.107 367.043L242.139 365.219C241.105 366.326 240.21 367.548 239.42 368.834C238.629 370.12 237.942 371.47 237.421 372.893L240.389 374.717C239.782 376.58 239.469 378.533 239.464 380.546L236.075 381.354C236.125 382.839 236.317 384.342 236.675 385.842C237.033 387.342 237.54 388.771 238.165 390.118L241.554 389.309C242.468 391.103 243.629 392.704 245.011 394.093L243.186 397.06C244.293 398.095 245.516 398.989 246.802 399.78C248.087 400.57 249.438 401.257 250.86 401.778L252.685 398.811C254.548 399.417 256.501 399.73 258.514 399.736L259.322 403.125C260.806 403.075 262.31 402.882 263.81 402.524C265.31 402.166 266.738 401.66 268.085 401.034L267.277 397.645C269.071 396.732 270.672 395.571 272.06 394.189L275.028 396.013C276.062 394.906 276.957 393.683 277.748 392.398C278.538 391.112 279.225 389.762 279.746 388.339L276.778 386.515C277.385 384.652 277.698 382.699 277.703 380.686L281.092 379.878C281.042 378.393 280.85 376.89 280.492 375.39C280.134 373.889 279.627 372.461 279.002 371.114L275.613 371.923C274.699 370.129 273.538 368.527 272.156 367.139L273.981 364.171C272.874 363.137 271.651 362.242 270.366 361.452C269.08 360.662 267.729 359.974 266.307 359.453L264.482 362.421C262.62 361.815 260.667 361.502 258.654 361.496L257.845 358.107C256.361 358.157 254.858 358.35 253.357 358.707V358.707ZM255.971 369.662C262.017 368.219 268.095 371.956 269.538 378.003C270.98 384.05 267.244 390.128 261.197 391.57C255.15 393.013 249.072 389.276 247.629 383.229C246.187 377.182 249.924 371.104 255.971 369.662Z" stroke="black" stroke-opacity="0.7" stroke-width="3" stroke-linecap="round" stroke-linejoin="round"/>
<path d="M425.951 349.17L441.536 312.947C456.042 279.228 497.09 266.232 528.36 285.456C559.684 304.714 566.575 347.31 542.92 375.463L517.552 405.653C500.216 426.286 470.384 431.112 447.427 416.998C424.423 402.855 415.279 373.976 425.951 349.17Z" stroke="black" stroke-width="5"/>
<path d="M435.51 330.513L441.721 315.015C455.365 280.971 496.378 267.417 527.621 286.625C558.928 305.872 565.296 348.705 540.943 376.227L529.879 388.731C511.765 409.204 481.557 413.695 458.27 399.378C434.927 385.027 425.317 355.948 435.51 330.513Z" fill="black"/>
<circle cx="239.153" cy="299.792" r="10.7979" transform="rotate(-13.417 239.153 299.792)" stroke="black" stroke-width="2"/>
<circle cx="239.153" cy="299.791" r="15.803" transform="rotate(-13.417 239.153 299.791)" stroke="black" stroke-width="2"/>
<path d="M222.329 227.724L265.797 409.947" stroke="black" stroke-width="2" stroke-linecap="round" stroke-dasharray="12 12"/>
<path d="M300.621 204.636L331.481 334" stroke="black" stroke-width="2" stroke-linecap="round" stroke-dasharray="12 12"/>
<path d="M348.03 196.832L383.203 344.28" stroke="black" stroke-width="2" stroke-linecap="round" stroke-dasharray="12 12"/>
<path d="M399.524 200.156L427.563 317.697" stroke="black" stroke-width="2" stroke-linecap="round" stroke-dasharray="12 12"/>
<path d="M214.482 392.049L300.03 371.642" stroke="black" stroke-width="2" stroke-linecap="round" stroke-dasharray="12 12"/>
<path d="M170.033 316.647L432.935 253.933" stroke="black" stroke-width="2" stroke-linecap="round" stroke-dasharray="12 12"/>
<path d="M216.639 401.091L225.681 398.934" stroke="black" stroke-width="3" stroke-linecap="round"/>
<path d="M314.106 369.019L373.92 354.75" stroke="black" stroke-width="3" stroke-linecap="round"/>
<path d="M316.097 377.365L371.042 364.258" stroke="black" stroke-width="3" stroke-linecap="round"/>
<path d="M317.258 382.234L347.165 375.1" stroke="black" stroke-width="3" stroke-linecap="round"/>
<path d="M217.801 405.959L236.579 401.479" stroke="black" stroke-width="3" stroke-linecap="round"/>
<path d="M324.943 256.98L335.005 240.614" stroke="black" stroke-opacity="0.6" stroke-width="3" stroke-linecap="round"/>
<path d="M319.701 284.619L357.302 223.458" stroke="black" stroke-opacity="0.6" stroke-width="3" stroke-linecap="round"/>
<path d="M328.846 288.857L341.06 268.982M365.013 230.37L352.489 250.401" stroke="black" stroke-opacity="0.6" stroke-width="3" stroke-linecap="round"/>
<path d="M335.697 296.828L345.076 281.573M375.946 231.36L366.789 246.255" stroke="black" stroke-opacity="0.6" stroke-width="3" stroke-linecap="round"/>
<path d="M339.546 309.681L352.199 289.1M388.251 230.014L376.453 249.677" stroke="black" stroke-opacity="0.6" stroke-width="3" stroke-linecap="round"/>
<path d="M351.781 308.893L361.23 293.525M393.256 241.811L384.318 255.754" stroke="black" stroke-opacity="0.6" stroke-width="3" stroke-linecap="round"/>
<path d="M362.957 309.828L372.798 293.624M398.619 251.107L388.251 268.625" stroke="black" stroke-opacity="0.6" stroke-width="3" stroke-linecap="round"/>
<path d="M370.955 315.933L408.629 253.967" stroke="black" stroke-opacity="0.6" stroke-width="3" stroke-linecap="round"/>
<path d="M392.193 300.501L403.624 281.852" stroke="black" stroke-opacity="0.6" stroke-width="3" stroke-linecap="round"/>
<path d="M353.754 224.74C350.634 225.484 347.664 226.538 344.863 227.839L346.544 234.886C342.815 236.785 339.484 239.2 336.598 242.073L330.427 238.279C328.276 240.581 326.416 243.124 324.772 245.797C323.128 248.471 321.699 251.279 320.616 254.236L326.787 258.031C325.526 261.904 324.875 265.965 324.864 270.15L317.817 271.831C317.921 274.918 318.321 278.044 319.065 281.163C319.809 284.283 320.863 287.252 322.164 290.054L329.211 288.373C331.11 292.102 333.524 295.432 336.398 298.319L332.604 304.49C334.906 306.641 337.449 308.501 340.122 310.145C342.795 311.788 345.603 313.217 348.561 314.301L352.355 308.129C356.228 309.391 360.29 310.042 364.475 310.053L366.156 317.1C369.243 316.996 372.368 316.596 375.488 315.852C378.608 315.108 381.577 314.053 384.378 312.753L382.697 305.706C386.427 303.807 389.757 301.392 392.644 298.519L398.815 302.313C400.965 300.011 402.826 297.468 404.469 294.795C406.113 292.121 407.542 289.313 408.625 286.356L402.454 282.561C403.715 278.688 404.366 274.627 404.378 270.442L411.425 268.761C411.321 265.674 410.921 262.548 410.176 259.429C409.432 256.309 408.378 253.34 407.078 250.538L400.031 252.219C398.131 248.49 395.717 245.16 392.843 242.273L396.637 236.102C394.336 233.951 391.793 232.091 389.12 230.447C386.446 228.804 383.638 227.375 380.68 226.291L376.886 232.463C373.013 231.201 368.952 230.55 364.766 230.539L363.085 223.492C359.999 223.596 356.873 223.996 353.754 224.74V224.74ZM359.187 247.518C371.76 244.519 384.399 252.289 387.399 264.862C390.398 277.436 382.628 290.075 370.054 293.074C357.481 296.073 344.842 288.303 341.843 275.73C338.843 263.156 346.614 250.517 359.187 247.518Z" stroke="black" stroke-width="5" stroke-linecap="round" stroke-linejoin="round"/>
<path d="M156.218 271.06L260.891 246.09" stroke="black" stroke-width="3" stroke-linecap="round"/>
<path d="M217.331 353.146L282.013 337.716" stroke="black" stroke-width="3" stroke-linecap="round"/>
<path d="M301.835 332.987L407.204 307.852" stroke="black" stroke-width="3" stroke-linecap="round"/>
<path d="M323.222 231.589L387.209 216.325" stroke="black" stroke-width="3" stroke-linecap="round"/>
<path d="M326.562 430.81C323.702 427.592 320.485 422.944 319.77 417.939C319.278 414.495 315.599 412.1 313.334 412.219" stroke="black" stroke-width="5" stroke-linecap="round"/>
<path d="M313.692 417.939C313.692 415.317 313.906 410.145 307.614 410.431" stroke="black" stroke-width="5" stroke-linecap="round"/>
<path d="M309.044 415.437C308.091 412.697 305.391 407.501 300.529 410.075" stroke="black" stroke-width="5" stroke-linecap="round"/>
<path d="M305.112 418.655C303.562 417.702 301.537 413.793 300.107 408.645C298.677 403.497 291.169 399.111 287.594 397.562C285.687 396.728 281.873 396.275 281.873 401.137C281.873 405.427 292.384 409.145 292.956 415.437C293.528 421.73 293.195 424.494 292.956 425.09C292.36 426.282 290.239 427.736 286.521 424.018C282.803 420.3 277.941 419.37 275.438 420.085C273.293 420.8 270.29 423.231 275.438 427.235C279.263 430.21 291.812 435.744 302.967 449.759" stroke="black" stroke-width="5" stroke-linecap="round"/>
<path d="M425.134 486.447C395.961 458.704 355.062 433.503 337.478 433.503C305.413 433.503 306.123 449.222 310.559 457.267C310.63 457.395 310.71 457.506 310.808 457.614C319.834 467.583 341.567 489.758 357.499 500" stroke="black" stroke-width="5" stroke-linecap="round"/>
<path d="M33.0629 479.154C39.9272 469.43 57.8504 442.511 65.5965 429.46C70.9012 420.522 74.8788 410.585 76.3218 403.829C79.1819 390.44 87.4047 366.291 112.43 399.539C118.35 407.405 124.11 414.587 100.156 461.064" stroke="black" stroke-width="5" stroke-linecap="round"/>
<path d="M122.152 392.1C127.384 385.661 136.841 375.6 140.664 368.557L146.902 357.893C151.128 351.104 152.936 345.569 154.551 342.568C155.269 341.235 155.716 340.222 156.71 338.239C157.612 336.44 158.405 334.623 157.776 333.133C157.294 331.991 155.282 329.993 151.093 331.134C146.904 332.274 144.047 335.812 143.142 337.438C142.236 338.786 138.302 343.669 137.224 344.74C134.72 347.23 122.385 357.556 114.692 351.506" stroke="black" stroke-width="5" stroke-linecap="round"/>
<path d="M113.195 341.507C119.581 338.131 131.986 332.044 136.307 327.865C140.745 327.006 151.705 328.442 150.599 322.557C150.369 321.331 146.51 318.29 140.773 317.258C136.645 316.515 133.652 316.225 130.223 318.068C128.279 319.113 127.507 319.484 124.997 321.151C123.049 322.009 121.862 323.002 120.271 324.095C118.636 325.219 116.269 327.005 112.957 330.13" stroke="black" stroke-width="5" stroke-linecap="round"/>
<path d="M124.997 321.152C123.956 320.585 119.455 320.622 114.149 323.25C108.353 326.121 107.363 327.208 105.118 328.688C102.874 330.169 98.3848 333.131 96.6275 334.56C93.5182 337.088 90.6847 339.938 89.5661 341.375C87.5965 344.417 88.6941 346.718 91.6545 352.382" stroke="black" stroke-width="5" stroke-linecap="round"/>
<path d="M93.4292 362.897C93.4292 366.667 92.5728 375.601 89.957 383.046" stroke="black" stroke-width="5" stroke-linecap="round"/>
<path d="M145.32 334.562L94.836 362.146C88.7366 364.531 84.4937 356.171 90.8935 353.348L113.16 341.477M152.343 330.629L161.679 325.581L157.257 318.512L150.937 321.704" stroke="black" stroke-width="5" stroke-linecap="round"/>
<path d="M162.938 324.896L168.202 317.105" stroke="black" stroke-width="5" stroke-linecap="round"/>
<path d="M158.511 317.853L168.202 317.105" stroke="black" stroke-width="5" stroke-linecap="round"/>
<path d="M182.6 168.87C183.633 179.641 168.335 181.725 167.675 169.4L166.178 72.5131L165.657 47.0258C165.634 45.9054 166.536 44.9849 167.657 44.9849L179.916 44.9849M182.6 168.87L180.836 72.514L179.916 44.9849M182.6 168.87L201.618 168.87C202.76 168.87 203.671 167.915 203.616 166.774L199.069 72.514L197.88 46.8922C197.83 45.8248 196.951 44.9849 195.882 44.9849L179.916 44.9849" stroke="black" stroke-width="5" stroke-linecap="round"/>
<rect x="200.576" y="84.2149" width="161.6" height="100.108" rx="7.5" transform="rotate(-30 200.576 84.2149)" stroke="black" stroke-width="5"/>
<ellipse cx="220.912" cy="89.4034" rx="3.93263" ry="4.29014" transform="rotate(-30 220.912 89.4034)" fill="black"/>
<path d="M349.927 93.3516L372.219 80.4812M361.274 95.0569L375.795 86.6734" stroke="black" stroke-width="5" stroke-linecap="round"/>
<path d="M247.553 130.436C252.194 127.161 265.313 123.424 281.616 133.632C282.317 134.071 283.241 133.547 283.201 132.721C282.229 112.873 283.338 92.0929 323.529 92.7621C324.566 92.7794 325.049 91.3012 324.222 90.6751C313.268 82.3794 300.39 64.1409 316.393 41.5471C316.942 40.7717 316.238 39.686 315.315 39.9112L310.93 40.9807C309.888 41.2349 309.303 39.9871 310.197 39.3944C316.046 35.5157 323.694 31.8665 322.855 36.8986C321.795 43.2615 322.496 46.4924 325.962 50.4955" stroke="black" stroke-width="5" stroke-linecap="round"/>
</svg>
