<svg width="546" height="506" viewBox="0 0 546 506" fill="none" xmlns="http://www.w3.org/2000/svg">
<path d="M82.1214 376.168V334.604V286.2C82.1214 274.445 83.7852 264.187 69.6346 263.381C55.4841 262.574 48.7457 278.593 24.4873 273.062C11.6846 270.142 0.903272 257.157 0.903259 241.944C0.903237 215.668 29.4219 199.813 56.8315 217.05C82.1214 232.955 82.1214 203.221 82.1214 193.54V129.156C82.1214 128.052 83.0169 127.156 84.1214 127.156H177.806C196.674 128.539 185.219 149.976 179.828 163.114C169.046 189.391 183.646 204.143 193.978 208.061C230.366 217.05 239.125 178.327 226.996 163.114C210.412 142.313 214.867 129.231 222.953 129.231H313.118C314.28 129.231 315.199 130.211 315.151 131.371C314.683 142.478 315.269 170.303 315.269 197.689C315.269 233.646 347.613 221.891 347.613 222.582C347.613 223.274 396.079 209.67 400.173 247.476C402.868 272.37 376.588 288.274 347.613 279.284C324.433 272.092 320.66 280.668 320.66 288.274V376.168C320.66 377.273 319.764 378.168 318.66 378.168H218.013C217.315 378.168 216.657 377.792 216.304 377.189C203.767 355.747 215.469 345.962 222.28 329.072C230.366 309.019 221.528 292.319 208.129 288.274C190.609 282.986 159.613 292.423 172.416 329.072C182.288 357.334 181.849 378.168 165.677 378.168H84.1214C83.0169 378.168 82.1214 377.273 82.1214 376.168Z" fill="black"/>
<path d="M313.677 132.555H391.275C400.722 132.555 417.952 123.945 412.193 89.3882C406.12 52.9485 435.095 53.2519 447.28 57.6708C453.578 59.9224 464.284 69.4181 456.727 89.3882C447.28 114.351 453.353 133.926 472.921 133.926H541.097C542.201 133.926 543.097 134.822 543.097 135.926V372.776C543.097 373.888 542.218 374.787 541.106 374.777C529.666 374.673 472.439 374.188 462.125 374.795C450.654 375.47 452.645 387.987 459.426 403.81C469.548 427.427 459.088 456.244 425.013 450.369C405.445 446.995 397.348 426.077 405.445 403.81C413.542 381.543 404.095 374.795 395.323 374.795C377.502 374.795 335.811 374.57 318.042 374.795" stroke="black" stroke-width="5" stroke-linecap="round"/>
<path d="M324.115 451.043C328.389 458.465 337.206 474.525 338.285 479.383" stroke="black" stroke-width="5" stroke-linecap="round"/>
<path d="M307.246 455.092C304.997 461.165 303.872 479.248 317.367 503" stroke="black" stroke-width="5" stroke-linecap="round"/>
<path d="M281.605 451.043C272.833 459.14 254.884 478.034 253.265 488.83" stroke="black" stroke-width="5" stroke-linecap="round"/>
<path d="M309.945 54.957C318.717 46.8599 336.666 27.9665 338.285 17.1703" stroke="black" stroke-width="5" stroke-linecap="round"/>
<path d="M284.304 50.9082C286.553 44.8353 287.678 26.7517 274.183 2.99997" stroke="black" stroke-width="5" stroke-linecap="round"/>
<path d="M267.435 54.957C263.161 47.5346 254.345 31.4753 253.265 26.617" stroke="black" stroke-width="5" stroke-linecap="round"/>
</svg>
