<svg width="480" height="506" viewBox="0 0 480 506" fill="none" xmlns="http://www.w3.org/2000/svg">
<path d="M26.6211 407.895C31.4884 394.152 29.4321 381.963 26.621 365.308C23.1072 344.489 17.2508 297.746 46.9231 267.893C70.6608 244.011 97.6782 231.756 108.22 228.613" stroke="black" stroke-width="5" stroke-linecap="round"/>
<path d="M86.4598 407.323C88.1573 401.376 104.846 375.52 102.724 358.077C101.96 353.115 102.495 341.7 113.031 335.745" stroke="black" stroke-width="5" stroke-linecap="round"/>
<path d="M76.9558 290.508C84.9725 277.338 106.732 260.159 123.911 257.296C141.089 254.433 142.608 266.112 140.393 271.07C137.071 278.507 129.84 286.727 115.377 302.384C101.05 317.896 93.2277 346.617 92.3157 360.317" stroke="black" stroke-width="5" stroke-linecap="round"/>
<path d="M360.854 244.159C349.721 234.605 322.033 217.695 300.344 226.49C298.379 227.276 294.293 230.967 293.664 239.448" stroke="black" stroke-width="5" stroke-linecap="round"/>
<path d="M337.499 326.583C315.739 301.96 303.141 282.491 306.005 257.868C307.6 244.144 315.504 238.485 322.741 245.337C332.345 254.432 339.789 265.885 350.245 270.467C352.295 271.421 358.8 273.329 368.42 273.329" stroke="black" stroke-width="5" stroke-linecap="round"/>
<path d="M417.435 381.585C416.388 377.397 414.213 363.995 415.471 353.315C417.042 339.965 415.62 289.575 393.616 275.047" stroke="black" stroke-width="5" stroke-linecap="round"/>
<path d="M414.23 248.706L278.658 238.944C278.435 238.928 278.201 238.952 277.986 239.011C257.302 244.701 266.205 256.139 273.475 262.077C273.776 262.323 274.143 262.468 274.531 262.503L305.432 265.312" stroke="black" stroke-width="5" stroke-linecap="round"/>
<path d="M413.657 276.192L368.402 273.226" stroke="black" stroke-width="5" stroke-linecap="round"/>
<ellipse cx="413.427" cy="262.398" rx="12.0251" ry="16.606" fill="black"/>
<path d="M398.281 273.562C389.877 261.95 396.261 252.706 401.033 249.097C401.381 248.835 401.811 248.717 402.246 248.737L416.244 249.388C417.346 249.439 418.199 250.373 418.149 251.475L417.143 274.068C417.092 275.219 416.08 276.089 414.934 275.968L399.651 274.347C399.107 274.289 398.602 274.006 398.281 273.562Z" fill="black"/>
<path d="M256.469 246.343L264.129 243.912C265.51 243.474 266.884 244.603 266.722 246.042L265.992 252.524C265.83 253.962 264.244 254.757 262.995 254.027L256.064 249.976C254.568 249.102 254.817 246.867 256.469 246.343Z" fill="black"/>
<path d="M112.558 259.586L107.074 108.341C107.074 86.0195 111.227 48.1907 157.606 48.8173C203.985 49.4438 229.159 49.0783 235.949 48.8173" stroke="black" stroke-width="5" stroke-linecap="round"/>
<path d="M289.222 48.8174H367.173C388.718 49.209 407.128 58.6075 407.128 94.6354C407.128 130.663 406.062 205.979 404.495 245.27" stroke="black" stroke-width="5" stroke-linecap="round"/>
<path d="M339.216 431.945C307.096 434.294 221.194 440.554 169.357 442.773C147.421 442.773 118.355 439.954 114.908 400.48L112.558 306.103" stroke="black" stroke-width="5" stroke-linecap="round"/>
<circle cx="262.255" cy="31.0589" r="15.2513" stroke="black" stroke-width="5"/>
<path d="M237.967 40.7508C240.777 48.8799 236.796 54.8202 227.819 56.7744C223.526 57.709 217.515 57.7905 205.962 61.8549C191.521 66.9355 188.789 81.3959 188.399 93.9021C188.086 103.907 193.863 107.19 204.011 107.581C233.543 107.451 296.798 108.362 313.685 108.362C331.249 108.362 333.803 101.718 334.371 97.4195C337.181 76.1589 329.687 67.6358 323.052 64.5907C319.93 63.1577 310.797 59.5882 299.244 56.7744C287.691 53.9606 285.611 50.1304 286.754 44.6589C289.564 31.2147 287.925 20.2979 286.754 16.52C285.453 11.3091 277.855 1.35623 257.872 3.23217C232.893 5.57708 234.454 30.5895 237.967 40.7508Z" stroke="black" stroke-width="5" stroke-linecap="round"/>
<path d="M374.719 242.407L376.207 97.5343C376.207 94.4067 374.435 88.9336 367.213 88.9336C359.784 88.9336 343.101 89.1942 335.541 88.9336" stroke="black" stroke-width="5" stroke-linecap="round"/>
<path d="M186.565 88.9341H150.592C146.682 88.5432 139.174 90.8107 140.425 103.008C141.677 115.205 147.724 304.341 150.592 397.385C150.461 402.076 152.547 411.302 161.931 410.677C169.07 410.201 280.167 403.945 346.661 401.024" stroke="black" stroke-width="5" stroke-linecap="round"/>
<path d="M385.599 244.126L387.659 100.223C387.659 95.9142 385.782 89.6468 375.146 91.2136" stroke="black" stroke-width="5" stroke-linecap="round"/>
<path d="M143.65 90.0381C139.74 90.038 130.746 90.0381 131.137 100.222C131.512 110.01 135.047 210.239 136.22 256.722" stroke="black" stroke-width="5" stroke-linecap="round"/>
<path d="M136.22 279.236L139.74 401.451C140.131 405.76 141.695 412.028 160.465 410.461" stroke="black" stroke-width="5" stroke-linecap="round"/>
<path d="M181.515 156.463H254.811" stroke="black" stroke-width="5" stroke-linecap="round"/>
<path d="M182.006 182.466L340.247 181.682" stroke="black" stroke-width="5" stroke-linecap="round"/>
<path d="M182.398 208.708L306.562 207.533" stroke="black" stroke-width="5" stroke-linecap="round"/>
<path d="M183.591 249.467L244.676 246.702" stroke="black" stroke-width="5" stroke-linecap="round"/>
<path d="M390.18 246.988C387.317 252.333 381.018 259.586 387.889 273.329" stroke="black" stroke-width="5" stroke-linecap="round"/>
<path d="M299.133 310.66C295.316 315.204 293.178 328.186 315.166 343.761C326.046 350.823 348.608 372.278 351.814 401.596" stroke="black" stroke-width="5" stroke-linecap="round"/>
<path d="M293.407 264.739C291.361 268.576 290.463 275.959 296.843 283.032C299.986 286.516 304.895 289.925 312.303 292.798" stroke="black" stroke-width="5" stroke-linecap="round"/>
<path d="M296.843 283.032C292.749 288.953 289.017 301.095 299.133 310.661C301.753 313.138 310.455 317.733 315.166 319.711" stroke="black" stroke-width="5" stroke-linecap="round"/>
<path d="M376.361 501.813C364.145 473.373 347.043 411.797 376.361 393.015C413.009 369.538 460.537 422.791 477.143 468.601" stroke="black" stroke-width="5" stroke-linecap="round"/>
<path d="M2.85718 479.473C5.72029 452.75 25.6475 398.21 59.5467 405.082C93.446 411.953 102.684 473.224 103.066 503" stroke="black" stroke-width="5" stroke-linecap="round"/>
</svg>
