<svg width="708" height="503" viewBox="0 0 708 503" fill="none" xmlns="http://www.w3.org/2000/svg">
<path d="M154.203 448.696C95.5964 401.706 237.336 377.999 313.685 373.249C314.152 373.22 314.561 373.53 314.692 373.98C337.379 451.555 396.674 482.937 423.736 490.418C359.498 496.819 213.01 495.848 154.203 448.696Z" fill="black"/>
<circle cx="482.013" cy="325.519" r="155.113" stroke="black" stroke-width="5"/>
<circle cx="482.013" cy="325.519" r="174.98" stroke="black" stroke-width="5"/>
<circle cx="482.013" cy="195.72" r="7.94688" fill="black"/>
<circle cx="482.013" cy="455.319" r="7.94688" fill="black"/>
<circle cx="611.812" cy="325.52" r="7.94688" fill="black"/>
<circle cx="352.214" cy="325.52" r="7.94688" fill="black"/>
<circle cx="482.013" cy="326.844" r="17.3672" stroke="black" stroke-width="5"/>
<path d="M415.789 326.844H466.119" stroke="black" stroke-width="5" stroke-linecap="round"/>
<path d="M199.899 201.681C193.939 200.798 180.561 198.237 174.734 195.059" stroke="black" stroke-width="5" stroke-linecap="round"/>
<path d="M339.631 222.872C321.751 224.417 281.487 224.991 247.58 212.276" stroke="black" stroke-width="5" stroke-linecap="round"/>
<path d="M305.857 315.586C260.162 316.69 163.078 314.394 121.754 299.03" stroke="black" stroke-width="5" stroke-linecap="round"/>
<path d="M191.952 362.605C145.816 361.06 43.3452 354.658 2.55127 341.413" stroke="black" stroke-width="5" stroke-linecap="round"/>
<path d="M482.013 311.613V224.859" stroke="black" stroke-width="5" stroke-linecap="round"/>
<path d="M646.248 271.217C666.778 272.541 709.161 283.8 705.188 257.972C703.123 244.55 688.734 242.194 681.259 242.695C680.902 242.719 680.564 242.567 680.355 242.276C671.907 230.548 650.097 212.372 627.615 230.148" stroke="black" stroke-width="5" stroke-linecap="round"/>
<path d="M399.233 94.0552C404.531 72.4221 430.358 35.6457 491.284 61.6055L510.489 71.2195" stroke="black" stroke-width="5" stroke-linecap="round"/>
<path d="M491.284 61.6056C504.308 52.7757 536.316 43.328 552.21 76.1751" stroke="black" stroke-width="5" stroke-linecap="round"/>
<path d="M372.081 96.042H421.087" stroke="black" stroke-width="5" stroke-linecap="round"/>
<path d="M211.864 40.1411C210.045 28.8144 198.974 19.9901 185.326 19.9901C182.748 19.9901 180.17 20.3852 177.895 20.912C170.919 10.2438 157.726 3 142.561 3C120.117 3 102.071 18.8047 102.071 38.1655" stroke="black" stroke-width="5" stroke-miterlimit="10" stroke-linecap="round" stroke-linejoin="round"/>
<path d="M211.865 40.1407C228.091 41.8528 240.678 53.8381 240.678 68.4574C240.678 84.2621 225.968 97.0376 207.77 97.0376L118.449 96.9059H109.35C91.1525 96.9059 76.4426 84.1304 76.4426 68.3257C76.4426 54.6283 87.513 43.3016 102.223 40.4041C108.895 39.0431 126.305 36.5056 142.561 37.2431M211.865 40.4041C206.911 39.5699 193.819 40.2724 181.08 49.7552" stroke="black" stroke-width="5" stroke-miterlimit="10" stroke-linecap="round" stroke-linejoin="round"/>
</svg>
