<svg width="960" height="960" viewBox="0 0 960 960" fill="none" xmlns="http://www.w3.org/2000/svg">
<g clip-path="url(#clip0_46_109)">
<g clip-path="url(#clip1_46_109)">
<path fill-rule="evenodd" clip-rule="evenodd" d="M274.396 303.719C308.162 292.965 338.839 274.229 363.826 249.1L364.544 249.804C374.448 269.815 381.295 291.591 382.295 313.904C383.008 328.353 380.974 342.807 376.301 356.498L376.927 356.715C398.678 356.832 420.412 355.448 441.974 352.574C423.597 343.871 411.865 324.788 406.217 305.188C402.101 290.882 400.656 276.024 399.211 261.165C398.637 255.266 398.063 249.367 397.323 243.502C394.716 222.863 389.592 201.662 376.365 185.611C362.729 169.074 341.707 159.835 320.455 157.049C275.842 151.183 228.766 173.803 205.466 212.294C194.847 229.832 189.103 249.683 183.382 269.457C182.129 273.788 180.877 278.115 179.575 282.414C172.355 306.222 162.86 330.451 144.598 347.333L145.467 348.24C183.794 360.906 223.534 368.812 263.791 371.78C275.555 372.658 287.329 373.11 299.113 373.136C300.342 373.278 301.582 372.979 302.613 372.293C304.811 370.401 302.689 366.926 300.683 364.843C284.851 348.295 275.518 326.593 274.396 303.719ZM361.186 177.428C360.454 176.662 359.241 176.635 358.475 177.366C357.71 178.097 357.682 179.311 358.414 180.076C369.27 191.438 377.71 204.882 383.225 219.596C388.741 234.31 391.216 249.99 390.503 265.688C390.455 266.746 391.273 267.642 392.331 267.69C393.388 267.738 394.285 266.92 394.333 265.862C395.07 249.647 392.512 233.45 386.815 218.25C381.118 203.051 372.4 189.164 361.186 177.428Z" fill="#171717"/>
<path d="M846 493.139L806.247 846.834L805.416 846.745L402.444 830.068L435.964 488.654L438.264 465.166L588.524 475.479L691.257 482.52L846 493.139ZM680.92 663.782C680.92 654.862 678.275 646.142 673.32 638.726C668.364 631.309 661.32 625.529 653.079 622.115C644.838 618.702 635.77 617.808 627.022 619.549C618.273 621.289 610.237 625.584 603.93 631.892C597.622 638.199 593.327 646.235 591.587 654.983C589.847 663.732 590.74 672.8 594.153 681.041C597.567 689.282 603.347 696.326 610.764 701.281C618.181 706.237 626.9 708.882 635.82 708.882C647.782 708.882 659.253 704.13 667.711 695.673C676.169 687.215 680.92 675.743 680.92 663.782V663.782Z" fill="white"/>
<path d="M806.247 846.834L802.707 878.322L399.48 860.278L402.444 830.067L805.416 846.744L806.247 846.834Z" fill="white"/>
<path d="M720.4 419.057C721.6 421.051 720.553 423.581 719.505 425.664C710.112 444.245 700.723 462.831 691.339 481.42L691.262 482.52L588.529 475.479L588.542 475.351C605.621 451.768 619.963 426.318 631.289 399.493L643.429 401.947C664.349 406.177 685.265 410.403 706.176 414.624C709.269 415.25 712.348 415.876 715.441 416.503C717.315 416.885 719.411 417.408 720.4 419.057Z" fill="#171717"/>
<path d="M635.821 618.672C644.74 618.672 653.459 621.317 660.876 626.272C668.292 631.227 674.073 638.27 677.487 646.51C680.9 654.751 681.794 663.818 680.055 672.566C678.316 681.315 674.021 689.351 667.715 695.659C661.409 701.966 653.374 706.262 644.626 708.004C635.878 709.745 626.81 708.854 618.569 705.442C610.328 702.03 603.284 696.251 598.327 688.836C593.37 681.421 590.723 672.702 590.721 663.783C590.719 657.859 591.885 651.994 594.151 646.52C596.416 641.047 599.738 636.074 603.926 631.885C608.114 627.696 613.087 624.373 618.559 622.106C624.032 619.839 629.897 618.672 635.821 618.672Z" fill="white"/>
<path d="M402.444 830.068L399.48 860.279L239.354 856.675L239.124 848.279L238.907 839.985L402.189 830.056L402.444 830.068Z" fill="white"/>
<path d="M355.378 468.514C383.304 469.435 410.712 476.297 435.778 488.642L435.97 488.655L402.45 830.069L402.194 830.056L238.912 839.986L239.129 848.28L238.107 848.306C215.015 845.546 207.007 842.338 196.28 835.246C167.309 816.064 144.587 797.777 125.84 768.525C102.985 732.871 98.1 687.261 108.493 646.201C118.886 605.141 143.572 568.541 174.703 539.826C205.834 511.111 243.203 489.82 282.075 473.026L282.548 472.77C281.014 465.537 285.794 458.163 292.12 454.329C294.914 452.749 298.038 451.844 301.244 451.684C305.18 451.339 309.295 451.543 313.333 451.007C316.911 450.534 320.541 449.64 324.157 448.924C329.499 447.863 334.828 447.199 339.901 448.824C348.412 451.559 356.001 459.367 355.39 468.287L355.378 468.514Z" fill="#171717"/>
<path d="M274.4 303.723C308.167 292.969 338.843 274.234 363.83 249.104C370.51 242.347 376.718 235.139 382.411 227.532" stroke="#171717" stroke-width="3.834" stroke-linecap="round" stroke-linejoin="round"/>
<path d="M364.542 249.808C374.442 269.821 381.296 291.597 382.293 313.908C383.008 328.357 380.975 342.81 376.301 356.501C373.704 363.978 370.189 371.104 365.835 377.714C358.065 389.445 347.688 399.214 339.075 410.341C330.462 421.468 323.42 434.826 324.149 448.884" stroke="#171717" stroke-width="3.834" stroke-linecap="round" stroke-linejoin="round"/>
<path d="M274.4 303.724C275.522 326.597 284.855 348.299 300.687 364.848C302.693 366.931 304.815 370.407 302.617 372.298C301.586 372.983 300.346 373.282 299.117 373.141C287.333 373.115 275.559 372.663 263.795 371.786C223.538 368.817 183.798 360.911 145.471 348.246" stroke="#171717" stroke-width="3.834" stroke-linecap="round" stroke-linejoin="round"/>
<path d="M144.365 347.556C144.442 347.479 144.518 347.415 144.595 347.339C162.857 330.457 172.352 306.228 179.572 282.42C186.818 258.497 192.518 233.679 205.463 212.3C228.763 173.809 275.839 151.189 320.452 157.055C341.704 159.841 362.726 169.08 376.362 185.617C389.589 201.668 394.713 222.869 397.32 243.508C399.927 264.147 400.464 285.208 406.214 305.194C411.862 324.794 423.594 343.877 441.971 352.58C442.342 352.759 442.712 352.925 443.083 353.091" stroke="#171717" stroke-width="3.834" stroke-linecap="round" stroke-linejoin="round"/>
<path d="M376.924 356.72C398.676 356.837 420.41 355.453 441.971 352.579L442.84 352.464" stroke="#171717" stroke-width="3.834" stroke-linecap="round" stroke-linejoin="round"/>
<path d="M263.75 372.208C275.437 381.483 284.869 393.286 291.338 406.73C297.807 420.174 301.145 434.91 301.1 449.83" stroke="#171717" stroke-width="3.834" stroke-linecap="round" stroke-linejoin="round"/>
<path d="M588.525 475.478L438.265 465.165L435.965 488.654L402.444 830.067L399.48 860.278L802.707 878.322L806.247 846.834L846.004 493.139L691.258 482.519L588.525 475.478Z" stroke="#171717" stroke-width="3.834" stroke-linecap="round" stroke-linejoin="round"/>
<path d="M399.48 860.279L239.354 856.675L239.124 848.279L238.907 839.985L402.189 830.056L402.444 830.068L805.416 846.745" stroke="#171717" stroke-width="3.834" stroke-linecap="round" stroke-linejoin="round"/>
<path d="M680.92 663.783C680.918 672.702 678.271 681.421 673.314 688.836C668.357 696.251 661.312 702.03 653.071 705.442C644.83 708.854 635.762 709.745 627.014 708.004C618.267 706.262 610.232 701.966 603.925 695.659C597.619 689.351 593.325 681.315 591.586 672.566C589.846 663.818 590.74 654.751 594.154 646.51C597.568 638.27 603.348 631.227 610.765 626.272C618.181 621.317 626.9 618.672 635.82 618.672C641.743 618.672 647.609 619.839 653.081 622.106C658.554 624.373 663.526 627.696 667.714 631.885C671.902 636.074 675.224 641.047 677.49 646.52C679.756 651.994 680.921 657.859 680.92 663.783V663.783Z" stroke="#171717" stroke-width="3.834" stroke-linecap="round" stroke-linejoin="round"/>
<path d="M333.091 324.082C335.689 323.715 338.2 322.884 340.503 321.628C342.727 320.235 344.465 317.781 344.247 315.162C344.017 312.414 341.793 310.319 339.889 308.312C337.373 305.829 335.375 302.872 334.01 299.612C332.64 296.32 332.508 292.643 333.639 289.261" stroke="#171717" stroke-width="3.834" stroke-linecap="round" stroke-linejoin="round"/>
<path d="M316.12 294.127C315.311 293.148 314.317 292.34 313.194 291.747C312.071 291.155 310.842 290.791 309.577 290.677" stroke="#171717" stroke-width="3.834" stroke-linecap="round" stroke-linejoin="round"/>
<path d="M344.337 285.91C345.015 284.431 346.058 283.149 347.366 282.183C348.675 281.218 350.208 280.6 351.82 280.388C353.433 280.176 355.073 280.376 356.587 280.971C358.101 281.566 359.44 282.535 360.477 283.788" stroke="#171717" stroke-width="3.834" stroke-linecap="round" stroke-linejoin="round"/>
<path d="M297.601 346.956C299.838 350.346 303.18 352.857 307.059 354.062C310.938 355.266 315.115 355.09 318.879 353.563" stroke="#171717" stroke-width="3.834" stroke-linecap="round" stroke-linejoin="round"/>
<path d="M238.1 848.3C215.008 845.54 207 842.332 196.273 835.24C167.302 816.058 144.58 797.771 125.833 768.519C102.985 732.868 98.1003 687.258 108.493 646.2C118.886 605.142 143.572 568.54 174.703 539.825C205.834 511.11 243.203 489.819 282.075 473.025" stroke="#171717" stroke-width="3.834" stroke-linecap="round" stroke-linejoin="round"/>
<path d="M282.548 472.77C281.014 465.537 285.794 458.163 292.12 454.329C294.915 452.749 298.039 451.844 301.244 451.684C305.18 451.339 309.295 451.543 313.333 451.007C316.911 450.534 320.541 449.64 324.157 448.924C329.499 447.863 334.828 447.199 339.901 448.824C348.412 451.559 356.001 459.367 355.39 468.287" stroke="#171717" stroke-width="3.834" stroke-linecap="round" stroke-linejoin="round"/>
<path d="M355.276 468.514H355.376C383.302 469.435 410.711 476.297 435.776 488.642" stroke="#171717" stroke-width="3.834" stroke-linecap="round" stroke-linejoin="round"/>
<path d="M588.538 475.35C605.617 451.767 619.958 426.317 631.285 399.492L643.425 401.946C664.345 406.176 685.261 410.402 706.172 414.623C709.265 415.249 712.344 415.875 715.437 416.502C717.316 416.885 719.411 417.409 720.395 419.058C721.595 421.052 720.548 423.582 719.5 425.665C710.107 444.246 700.718 462.831 691.334 481.421" stroke="#171717" stroke-width="3.834" stroke-linecap="round" stroke-linejoin="round"/>
<path d="M643.821 400.001C640.741 391.477 637.657 382.949 634.569 374.417C633.393 371.158 632.192 367.746 632.669 364.317C633.146 360.888 635.869 357.493 639.327 357.544C642.327 357.582 644.682 360.023 646.573 362.362C651.466 368.348 655.803 374.769 659.531 381.544" stroke="#171717" stroke-width="3.834" stroke-linecap="round" stroke-linejoin="round"/>
<path d="M701.546 379.952C703.718 374.393 705.405 368.668 705.533 362.738C705.622 358.828 704.051 353.907 700.153 353.588C697.495 353.358 695.271 355.488 693.61 357.575C689.758 362.403 686.731 367.835 684.652 373.651C683.963 375.584 683.383 377.554 682.914 379.551" stroke="#171717" stroke-width="3.834" stroke-linecap="round" stroke-linejoin="round"/>
<path d="M701.547 379.952C700.278 382.436 699.197 385.012 698.313 387.658C699.424 385.115 700.537 382.559 701.547 379.952Z" stroke="#171717" stroke-width="3.834" stroke-linecap="round" stroke-linejoin="round"/>
<path d="M706.415 413.434C712.144 402.221 717.234 390.693 721.661 378.904C722.619 376.348 723.561 373.716 723.461 370.994C723.361 368.272 721.979 365.422 719.474 364.374C715.64 362.774 711.538 365.874 708.854 369.026C706.001 372.372 703.548 376.039 701.544 379.952" stroke="#171717" stroke-width="3.834" stroke-linecap="round" stroke-linejoin="round"/>
<path d="M681.674 380.324C682.492 378.036 683.284 375.736 684.074 373.449H684.087C690.4 355.187 696.142 336.742 701.314 318.114C702.914 312.351 703.985 305.028 699.214 301.414C695.329 298.462 689.387 300.021 685.975 303.523C682.563 307.025 681.068 311.923 679.675 316.609C673.233 338.333 666.793 360.063 660.353 381.797C660.327 381.897 660.289 381.997 660.264 382.104" stroke="#171717" stroke-width="3.834" stroke-linecap="round" stroke-linejoin="round"/>
<path d="M367.51 163.437C348.216 147.874 321.776 142.09 297.416 146.678C273.056 151.266 250.99 165.778 235.843 185.399C220.696 205.02 212.318 229.49 210.638 254.222C210.118 261.88 211.073 271.104 217.845 274.716C224.276 278.146 232.587 274.072 236.563 267.963C240.539 261.854 241.421 254.323 242.744 247.155C247.027 223.955 257.359 201.41 274.526 185.221C291.693 169.032 316.116 159.876 339.38 163.821C354.453 166.466 368.026 174.563 377.514 186.571C379.8 189.48 381.79 192.609 383.457 195.912C384.248 197.487 386.135 205.201 387.439 205.746C391.949 207.634 385.988 187.346 385.01 185.268C380.893 176.767 374.911 169.305 367.51 163.437Z" fill="white" stroke="#171717" stroke-width="3" stroke-miterlimit="10"/>
<path d="M286.572 382.378C299.835 385.138 313.652 382.557 325.024 375.195C327.48 373.587 329.924 371.715 332.824 371.27C335.724 370.825 339.216 372.501 339.494 375.423C339.672 377.284 338.533 379.005 337.301 380.411C332.72 385.636 326.201 388.902 319.437 390.493C312.673 392.084 305.637 392.106 298.7 391.655C282.876 390.628 265.021 387.367 251.57 378.419C247.793 375.907 243.215 370.453 249.406 367.983C253.947 366.171 259.633 367.883 263.382 370.583C270.735 375.882 277.5 380.442 286.572 382.378Z" fill="white" stroke="#171717" stroke-width="3" stroke-miterlimit="10"/>
<path d="M362.682 367.335L342.364 383.087C341.72 383.586 340.985 383.953 340.199 384.168C339.414 384.383 338.594 384.441 337.786 384.339C336.978 384.237 336.198 383.977 335.491 383.573C334.784 383.169 334.163 382.63 333.664 381.987L329.52 376.642C329.021 375.998 328.653 375.263 328.438 374.477C328.224 373.692 328.166 372.872 328.268 372.064C328.37 371.256 328.63 370.476 329.034 369.769C329.437 369.062 329.976 368.441 330.62 367.942L350.938 352.19C351.581 351.691 352.317 351.323 353.102 351.108C353.888 350.894 354.708 350.835 355.516 350.938C356.324 351.04 357.104 351.3 357.811 351.704C358.518 352.107 359.139 352.646 359.638 353.29L363.782 358.635C364.281 359.278 364.648 360.014 364.863 360.799C365.078 361.585 365.136 362.405 365.034 363.213C364.932 364.021 364.672 364.8 364.268 365.508C363.864 366.215 363.325 366.836 362.682 367.335V367.335Z" fill="#171717"/>
<path d="M398.556 800.73C358.707 800.939 318.129 800.105 280.269 787.672C242.409 775.239 207.078 749.421 192.338 712.398C182.572 687.869 182.538 660.074 189.57 634.625C196.602 609.176 210.37 585.946 227.176 565.582" stroke="white" stroke-width="3.834" stroke-linecap="round" stroke-linejoin="round"/>
<path d="M341.736 467.523C340.874 462.923 340.01 458.323 339.146 453.723" stroke="white" stroke-width="3.834" stroke-linecap="round" stroke-linejoin="round"/>
<path d="M324.666 469.975C324.059 465.365 323.452 460.755 322.846 456.145" stroke="white" stroke-width="3.834" stroke-linecap="round" stroke-linejoin="round"/>
<path d="M307.187 471.182C306.787 467.573 306.389 463.964 305.992 460.356" stroke="white" stroke-width="3.834" stroke-linecap="round" stroke-linejoin="round"/>
<path d="M291.385 471.801C291.202 468.593 291.019 465.384 290.835 462.176" stroke="white" stroke-width="3.834" stroke-linecap="round" stroke-linejoin="round"/>
<path d="M624.212 429.794C650.005 435.892 676.005 441.002 702.212 445.124" stroke="white" stroke-width="3.834" stroke-linecap="round" stroke-linejoin="round"/>
<path d="M406.407 546.948C402.166 542.53 397.925 538.112 393.683 533.693" stroke="white" stroke-width="3.834" stroke-linecap="round" stroke-linejoin="round"/>
<path d="M348.589 610.66C352.207 605.053 355.825 599.447 359.444 593.841" stroke="white" stroke-width="3.834" stroke-linecap="round" stroke-linejoin="round"/>
<path d="M317.573 549.833L303.573 537.326" stroke="white" stroke-width="3.834" stroke-linecap="round" stroke-linejoin="round"/>
<path d="M266.167 622.665L276.426 607.052" stroke="white" stroke-width="3.834" stroke-linecap="round" stroke-linejoin="round"/>
<path d="M324.8 665.249C319.82 660.4 314.839 655.552 309.857 650.705" stroke="white" stroke-width="3.834" stroke-linecap="round" stroke-linejoin="round"/>
<path d="M399.587 649.401L385.231 636.088" stroke="white" stroke-width="3.834" stroke-linecap="round" stroke-linejoin="round"/>
<path d="M345.06 712.949C350.401 708.836 354.906 703.74 358.332 697.935" stroke="white" stroke-width="3.834" stroke-linecap="round" stroke-linejoin="round"/>
<path d="M272.286 721.36C277.478 716.916 282.122 711.869 286.118 706.325" stroke="white" stroke-width="3.834" stroke-linecap="round" stroke-linejoin="round"/>
<path d="M241.09 684.001L229.768 672.473" stroke="white" stroke-width="3.834" stroke-linecap="round" stroke-linejoin="round"/>
<path d="M385.507 753.679L373.382 741.144" stroke="white" stroke-width="3.834" stroke-linecap="round" stroke-linejoin="round"/>
<path d="M228.828 817.69L216.384 799.479" stroke="white" stroke-width="3.834" stroke-linecap="round" stroke-linejoin="round"/>
<path d="M181.947 778.868L199.4 768.659" stroke="white" stroke-width="3.834" stroke-linecap="round" stroke-linejoin="round"/>
<path d="M164.333 746.183L155.446 729.873" stroke="white" stroke-width="3.834" stroke-linecap="round" stroke-linejoin="round"/>
<path d="M133.923 699.648L148.93 688.785" stroke="white" stroke-width="3.834" stroke-linecap="round" stroke-linejoin="round"/>
<path d="M166.627 650.28L155.676 632.92" stroke="white" stroke-width="3.834" stroke-linecap="round" stroke-linejoin="round"/>
<path d="M132.539 615.321C137.104 610.048 142.244 605.301 147.861 601.167" stroke="white" stroke-width="3.834" stroke-linecap="round" stroke-linejoin="round"/>
<path d="M197.453 567.901C195.72 562.327 193.986 556.754 192.253 551.182" stroke="white" stroke-width="3.834" stroke-linecap="round" stroke-linejoin="round"/>
<path d="M242.11 528.162L256.01 518.633" stroke="white" stroke-width="3.834" stroke-linecap="round" stroke-linejoin="round"/>
<path d="M133.8 484.672C102.33 469.325 61.2592 504.494 53.0662 533.92C45.2162 561.008 94.4042 609.814 105.65 568.383C99.0682 544.445 67.4812 559.9 68.3312 580.67C67.9162 603.554 79.3222 655.207 40.5752 647.158" stroke="#171717" stroke-width="3.834" stroke-linecap="round" stroke-linejoin="round"/>
<path d="M607.748 220.814C613.101 227.871 617.535 236.084 617.848 244.937C618.161 253.79 613.41 263.25 605.071 266.237C596.732 269.224 585.794 263.153 585.758 254.295C585.745 251.033 587.589 247.424 590.795 246.825C595.124 246.016 598.269 250.734 600.041 254.766C603.041 261.583 605.641 270.03 601.186 275.996C598.408 279.715 593.673 281.254 589.641 283.554C577.018 290.754 570.93 307.641 576.056 321.239" stroke="#171717" stroke-width="3.834" stroke-linecap="round" stroke-linejoin="round"/>
<path d="M903.948 471C900.873 475.329 899.3 480.546 899.47 485.854C899.64 491.161 901.543 496.267 904.888 500.391C908.443 504.566 913.472 507.535 916.07 512.363C920.82 521.189 915.563 532.07 909.181 539.798C906.237 543.362 902.771 546.867 898.281 547.978C893.791 549.089 888.187 546.778 887.294 542.241C886.172 536.541 892.429 532.313 897.894 530.356C902.444 528.727 907.551 527.482 912.018 529.327C916.064 530.997 918.809 535.001 919.893 539.242C920.977 543.483 920.609 547.959 919.893 552.276C918.522 560.558 915.566 569.121 908.976 574.319C902.386 579.517 891.402 579.708 886.5 572.895" stroke="#171717" stroke-width="3.834" stroke-linecap="round" stroke-linejoin="round"/>
<path d="M744.168 407.511C756.31 391.296 757.12 367.459 746.107 350.457" stroke="#171717" stroke-width="3.834" stroke-linecap="round" stroke-linejoin="round"/>
<path d="M447.2 164.791C446.35 157.267 445.499 149.744 444.648 142.222" stroke="#171717" stroke-width="3.834" stroke-linecap="round" stroke-linejoin="round"/>
<path d="M435.735 155.414C442.761 153.219 449.951 151.583 457.235 150.524" stroke="#171717" stroke-width="3.834" stroke-linecap="round" stroke-linejoin="round"/>
<path d="M403.449 108.276L390.257 86.4219" stroke="#171717" stroke-width="3.834" stroke-linecap="round" stroke-linejoin="round"/>
<path d="M386.784 104.267C393.614 98.2716 399.998 91.7857 405.884 84.8613L404.631 87.0743" stroke="#171717" stroke-width="3.834" stroke-linecap="round" stroke-linejoin="round"/>
<path d="M775.644 327.154C776.883 322.112 779.364 317.461 782.861 313.623" stroke="#171717" stroke-width="3.834" stroke-linecap="round" stroke-linejoin="round"/>
<path d="M784.775 324.262L771.24 316.15" stroke="#171717" stroke-width="3.834" stroke-linecap="round" stroke-linejoin="round"/>
<path d="M454.418 306.237C474.618 295.823 493.969 283.841 512.295 270.4" stroke="#171717" stroke-width="3.834" stroke-linecap="round" stroke-linejoin="round"/>
<path d="M435.547 296.479L444.596 268.524" stroke="#171717" stroke-width="3.834" stroke-linecap="round" stroke-linejoin="round"/>
<path d="M465.516 325.911C474.065 330.56 482.938 334.586 492.067 337.959" stroke="#171717" stroke-width="3.834" stroke-linecap="round" stroke-linejoin="round"/>
<path d="M480.215 96.2234L491.803 103.262C491.952 103.353 492.069 103.487 492.14 103.646C492.211 103.806 492.231 103.983 492.197 104.154C492.164 104.325 492.079 104.482 491.954 104.604C491.829 104.725 491.67 104.805 491.498 104.833L478.117 107.018C477.95 107.046 477.796 107.122 477.672 107.237C477.549 107.352 477.463 107.5 477.424 107.664L474.31 120.864C474.27 121.034 474.178 121.187 474.049 121.303C473.919 121.42 473.756 121.493 473.584 121.515C473.411 121.536 473.235 121.504 473.081 121.422C472.927 121.341 472.802 121.214 472.722 121.059L466.509 109C466.431 108.851 466.312 108.727 466.164 108.645C466.017 108.564 465.849 108.527 465.681 108.541L452.169 109.657C451.995 109.672 451.821 109.632 451.67 109.545C451.52 109.457 451.4 109.326 451.326 109.168C451.252 109.01 451.229 108.833 451.259 108.661C451.288 108.49 451.37 108.331 451.493 108.207L461.034 98.5744C461.152 98.4546 461.233 98.3024 461.265 98.1368C461.297 97.9713 461.28 97.7999 461.215 97.6444L455.978 85.1384C455.91 84.9776 455.894 84.8002 455.931 84.6299C455.968 84.4596 456.056 84.3046 456.183 84.1858C456.31 84.067 456.471 83.99 456.644 83.9653C456.816 83.9405 456.992 83.9692 457.148 84.0474L469.258 90.1474C469.408 90.2231 469.578 90.2526 469.745 90.2321C469.912 90.2117 470.07 90.1422 470.198 90.0324L480.474 81.1874C480.606 81.0735 480.77 81.0028 480.943 80.985C481.117 80.9671 481.292 81.0028 481.444 81.0874C481.597 81.172 481.72 81.3013 481.796 81.4579C481.873 81.6146 481.9 81.791 481.874 81.9634L479.818 95.3634C479.79 95.53 479.813 95.701 479.884 95.8543C479.955 96.0077 480.07 96.1362 480.215 96.2234V96.2234Z" fill="#171717"/>
<path d="M762.678 289.275C761.827 281.752 760.976 274.229 760.126 266.706" stroke="#171717" stroke-width="3.834" stroke-linecap="round" stroke-linejoin="round"/>
<path d="M751.211 279.901C758.237 277.705 765.426 276.07 772.711 275.011" stroke="#171717" stroke-width="3.834" stroke-linecap="round" stroke-linejoin="round"/>
<path d="M222.672 392.103C250.405 392.103 272.887 361.745 272.887 324.297C272.887 286.849 250.405 256.491 222.672 256.491C194.939 256.491 172.457 286.849 172.457 324.297C172.457 361.745 194.939 392.103 222.672 392.103Z" fill="white" stroke="#171717" stroke-width="3" stroke-miterlimit="10"/>
<g opacity="0.1">
<path d="M209.837 258.73C206.562 259.437 204.114 261.795 201.357 263.571C198.315 265.339 195.518 267.498 193.038 269.993C188.525 275.062 184.636 280.654 181.456 286.649C174.175 300.21 170.468 314.706 171.839 330.158C173.239 345.885 178.112 361.469 188.605 373.495C196.621 382.681 212.75 398.238 226.144 389.643C230.25 387.009 229.994 381.643 226.144 378.958C221.776 375.912 216.47 375.036 212.252 371.545C208.015 368.128 204.6 363.804 202.258 358.89C197.169 348.19 192.211 338.142 191.277 326.069C190.413 314.901 191.477 303.051 195.277 292.477C197.277 287.263 199.845 282.284 202.933 277.631C204.558 275.031 205.844 272.247 207.411 269.631C208.957 267.048 211.424 265.141 212.639 262.383C212.87 261.955 212.972 261.469 212.933 260.983C212.894 260.498 212.715 260.035 212.419 259.649C212.122 259.263 211.72 258.971 211.261 258.809C210.802 258.646 210.306 258.62 209.833 258.733L209.837 258.73Z" fill="#171717"/>
</g>
<g opacity="0.1">
<path d="M276.65 375.545C276.397 376.54 276.376 377.579 276.589 378.583C276.803 379.587 277.244 380.528 277.88 381.333C278.435 382.285 279.232 383.074 280.188 383.62C281.145 384.167 282.229 384.453 283.331 384.448C284.433 384.444 285.514 384.15 286.467 383.596C287.419 383.042 288.21 382.247 288.758 381.291C289.306 380.335 289.594 379.252 289.592 378.15C289.589 377.048 289.297 375.966 288.745 375.013C288.192 374.059 287.399 373.268 286.444 372.718C285.489 372.167 284.407 371.878 283.305 371.878C280.665 371.6 277.436 372.709 276.65 375.545V375.545Z" fill="#171717"/>
</g>
<g opacity="0.1">
<path d="M287.477 395.118C287.388 399.575 289.562 403.566 291.244 407.585C293.015 411.814 294.502 416.178 295.844 420.562C297.204 424.973 298.251 429.473 298.976 434.031C299.687 438.583 299.617 443.215 300.502 447.731C301.168 451.131 304.971 453.166 308.165 452.731C311.88 452.231 313.771 449.382 314.221 445.871C315.438 436.371 312.332 424.92 309.436 415.915C306.845 407.859 302.467 395.154 294.321 391.187C291.24 389.687 287.551 391.487 287.479 395.114L287.477 395.118Z" fill="#171717"/>
</g>
</g>
</g>
<defs>
<clipPath id="clip0_46_109">
<rect width="960" height="960" fill="white"/>
</clipPath>
<clipPath id="clip1_46_109">
<rect width="885" height="801" fill="white" transform="translate(38 80)"/>
</clipPath>
</defs>
</svg>
