<svg width="182" height="53" viewBox="0 0 182 53" fill="none" xmlns="http://www.w3.org/2000/svg">
<g filter="url(#filter0_ii_348_8109)">
<path d="M2.132 5.85H10.608C13.5547 5.85 15.704 6.54333 17.056 7.93C18.408 9.282 19.084 11.3793 19.084 14.222V16.458C19.084 20.2367 17.836 22.6287 15.34 23.634V23.738C16.7267 24.154 17.6973 25.0033 18.252 26.286C18.8413 27.5687 19.136 29.2847 19.136 31.434V37.83C19.136 38.87 19.1707 39.7193 19.24 40.378C19.3093 41.002 19.4827 41.626 19.76 42.25H13.936C13.728 41.6607 13.5893 41.106 13.52 40.586C13.4507 40.066 13.416 39.13 13.416 37.778V31.122C13.416 29.458 13.1387 28.2967 12.584 27.638C12.064 26.9793 11.1453 26.65 9.828 26.65H7.852V42.25H2.132V5.85ZM9.932 21.45C11.076 21.45 11.9253 21.1553 12.48 20.566C13.0693 19.9767 13.364 18.9887 13.364 17.602V14.794C13.364 13.4767 13.1213 12.5233 12.636 11.934C12.1853 11.3447 11.4573 11.05 10.452 11.05H7.852V21.45H9.932ZM23.1047 5.85H38.2367V11.05H28.8247V21.19H36.2087V26.39H28.8247V42.25H23.1047V5.85ZM57.8277 45.63C55.2277 45.63 53.633 44.4687 53.0437 42.146C51.969 42.562 50.7037 42.77 49.2477 42.77C46.4397 42.77 44.2903 41.9727 42.7997 40.378C41.309 38.7833 40.5637 36.53 40.5637 33.618V14.482C40.5637 11.57 41.309 9.31667 42.7997 7.722C44.2903 6.12733 46.4397 5.33 49.2477 5.33C52.0557 5.33 54.205 6.12733 55.6957 7.722C57.1863 9.31667 57.9317 11.57 57.9317 14.482V33.618C57.9317 36.0447 57.3943 38.038 56.3197 39.598C56.5277 39.9447 56.7877 40.17 57.0997 40.274C57.4117 40.378 57.8623 40.43 58.4517 40.43H59.3357V45.63H57.8277ZM49.2477 37.57C51.2237 37.57 52.2117 36.374 52.2117 33.982V14.118C52.2117 11.726 51.2237 10.53 49.2477 10.53C47.2717 10.53 46.2837 11.726 46.2837 14.118V33.982C46.2837 36.374 47.2717 37.57 49.2477 37.57ZM74.6001 11.05H68.6201V5.85H86.3001V11.05H80.3201V42.25H74.6001V11.05ZM89.0695 5.85H94.7895V42.25H89.0695V5.85ZM107.185 42.77C104.412 42.77 102.297 41.99 100.841 40.43C99.3854 38.8353 98.6574 36.5647 98.6574 33.618V14.482C98.6574 11.5353 99.3854 9.282 100.841 7.722C102.297 6.12733 104.412 5.33 107.185 5.33C109.959 5.33 112.073 6.12733 113.529 7.722C114.985 9.282 115.713 11.5353 115.713 14.482V17.602H110.305V14.118C110.305 11.726 109.317 10.53 107.341 10.53C105.365 10.53 104.377 11.726 104.377 14.118V34.034C104.377 36.3913 105.365 37.57 107.341 37.57C109.317 37.57 110.305 36.3913 110.305 34.034V26.91H107.445V21.71H115.713V33.618C115.713 36.5647 114.985 38.8353 113.529 40.43C112.073 41.99 109.959 42.77 107.185 42.77ZM119.386 5.85H134.986V11.05H125.106V20.67H132.958V25.87H125.106V37.05H134.986V42.25H119.386V5.85ZM138.277 5.85H146.753C149.699 5.85 151.849 6.54333 153.201 7.93C154.553 9.282 155.229 11.3793 155.229 14.222V16.458C155.229 20.2367 153.981 22.6287 151.485 23.634V23.738C152.871 24.154 153.842 25.0033 154.397 26.286C154.986 27.5687 155.281 29.2847 155.281 31.434V37.83C155.281 38.87 155.315 39.7193 155.385 40.378C155.454 41.002 155.627 41.626 155.905 42.25H150.081C149.873 41.6607 149.734 41.106 149.665 40.586C149.595 40.066 149.561 39.13 149.561 37.778V31.122C149.561 29.458 149.283 28.2967 148.729 27.638C148.209 26.9793 147.29 26.65 145.973 26.65H143.997V42.25H138.277V5.85ZM146.077 21.45C147.221 21.45 148.07 21.1553 148.625 20.566C149.214 19.9767 149.509 18.9887 149.509 17.602V14.794C149.509 13.4767 149.266 12.5233 148.781 11.934C148.33 11.3447 147.602 11.05 146.597 11.05H143.997V21.45H146.077Z" fill="#374151"/>
<g clip-path="url(#clip0_348_8109)" filter="url(#filter1_ii_348_8109)">
<path fill-rule="evenodd" clip-rule="evenodd" d="M171.92 0.410027C174.629 0.114273 175.714 1.28761 175.173 3.93003C174.713 4.92231 174.251 5.91787 173.787 6.9167C172.479 8.91038 170.79 9.31927 168.72 8.14336C167.338 6.69812 167.178 5.11589 168.24 3.39669C169.163 2.00493 170.39 1.00937 171.92 0.410027Z" fill="#FC894D"/>
<path fill-rule="evenodd" clip-rule="evenodd" d="M163.92 2.11667C166.173 1.86388 167.293 2.85943 167.28 5.10334C166.853 8.48241 164.933 10.1535 161.52 10.1167C159.309 10.1104 158.278 9.0082 158.427 6.81C159.04 4.96006 160.231 3.62673 162 2.81C162.653 2.57701 163.293 2.3459 163.92 2.11667Z" fill="#FC894D"/>
<path fill-rule="evenodd" clip-rule="evenodd" d="M178.213 4.67668C180.653 4.67991 181.773 5.8888 181.573 8.30335C180.569 11.4049 178.453 12.7027 175.227 12.1967C173.529 11.3743 172.942 10.0409 173.467 8.19668C173.831 7.61822 174.276 7.10267 174.8 6.65001C175.328 6.29958 175.826 5.90847 176.293 5.47668C176.906 5.11644 177.546 4.84977 178.213 4.67668Z" fill="#FC894D"/>
<path fill-rule="evenodd" clip-rule="evenodd" d="M167.12 9.90333C171.762 9.22829 173.38 11.1127 171.973 15.5567C171.889 16.5921 171.925 17.6232 172.08 18.65C172.864 20.7625 172.277 22.3802 170.32 23.5033C169.538 23.5745 168.755 23.5745 167.973 23.5033C167.815 23.2269 167.851 22.978 168.08 22.7567C168.024 22.6829 167.953 22.6295 167.867 22.5967C167.668 22.8126 167.491 23.0437 167.333 23.29C166.38 23.4049 165.456 23.2982 164.56 22.97C162.709 21.7236 161.02 20.2836 159.493 18.65C159.056 18.0948 158.7 17.4903 158.427 16.8367C158.26 15.5263 158.225 14.2107 158.32 12.89C158.77 11.819 159.57 11.1611 160.72 10.9167C162.881 10.6965 165.015 10.3588 167.12 9.90333Z" fill="#FF8A4C"/>
<path fill-rule="evenodd" clip-rule="evenodd" d="M175.12 13.3167C176.294 13.2989 177.467 13.3167 178.64 13.37C180.503 13.7396 181.267 14.8596 180.933 16.73C180.714 17.3462 180.412 17.9152 180.027 18.4367C179.151 19.3655 178.191 20.2011 177.147 20.9433C174.6 21.7059 173.018 20.7992 172.4 18.2233C171.959 15.7948 172.866 14.1592 175.12 13.3167Z" fill="#FC894D"/>
</g>
</g>
<defs>
<filter id="filter0_ii_348_8109" x="0" y="0.25" width="182" height="56" filterUnits="userSpaceOnUse" color-interpolation-filters="sRGB">
<feFlood flood-opacity="0" result="BackgroundImageFix"/>
<feBlend mode="normal" in="SourceGraphic" in2="BackgroundImageFix" result="shape"/>
<feColorMatrix in="SourceAlpha" type="matrix" values="0 0 0 0 0 0 0 0 0 0 0 0 0 0 0 0 0 0 127 0" result="hardAlpha"/>
<feMorphology radius="2" operator="dilate" in="SourceAlpha" result="effect1_innerShadow_348_8109"/>
<feOffset dy="2"/>
<feGaussianBlur stdDeviation="2"/>
<feComposite in2="hardAlpha" operator="arithmetic" k2="-1" k3="1"/>
<feColorMatrix type="matrix" values="0 0 0 0 0 0 0 0 0 0 0 0 0 0 0 0 0 0 0.05 0"/>
<feBlend mode="normal" in2="shape" result="effect1_innerShadow_348_8109"/>
<feColorMatrix in="SourceAlpha" type="matrix" values="0 0 0 0 0 0 0 0 0 0 0 0 0 0 0 0 0 0 127 0" result="hardAlpha"/>
<feMorphology radius="1" operator="dilate" in="SourceAlpha" result="effect2_innerShadow_348_8109"/>
<feOffset dy="4"/>
<feGaussianBlur stdDeviation="3"/>
<feComposite in2="hardAlpha" operator="arithmetic" k2="-1" k3="1"/>
<feColorMatrix type="matrix" values="0 0 0 0 0 0 0 0 0 0 0 0 0 0 0 0 0 0 0.1 0"/>
<feBlend mode="normal" in2="effect1_innerShadow_348_8109" result="effect2_innerShadow_348_8109"/>
</filter>
<filter id="filter1_ii_348_8109" x="158" y="0.25" width="24" height="26.8829" filterUnits="userSpaceOnUse" color-interpolation-filters="sRGB">
<feFlood flood-opacity="0" result="BackgroundImageFix"/>
<feBlend mode="normal" in="SourceGraphic" in2="BackgroundImageFix" result="shape"/>
<feColorMatrix in="SourceAlpha" type="matrix" values="0 0 0 0 0 0 0 0 0 0 0 0 0 0 0 0 0 0 127 0" result="hardAlpha"/>
<feOffset dy="1.15315"/>
<feGaussianBlur stdDeviation="0.864865"/>
<feComposite in2="hardAlpha" operator="arithmetic" k2="-1" k3="1"/>
<feColorMatrix type="matrix" values="0 0 0 0 0 0 0 0 0 0 0 0 0 0 0 0 0 0 0.05 0"/>
<feBlend mode="normal" in2="shape" result="effect1_innerShadow_348_8109"/>
<feColorMatrix in="SourceAlpha" type="matrix" values="0 0 0 0 0 0 0 0 0 0 0 0 0 0 0 0 0 0 127 0" result="hardAlpha"/>
<feMorphology radius="0.864865" operator="dilate" in="SourceAlpha" result="effect2_innerShadow_348_8109"/>
<feOffset dy="2.88288"/>
<feGaussianBlur stdDeviation="2.16216"/>
<feComposite in2="hardAlpha" operator="arithmetic" k2="-1" k3="1"/>
<feColorMatrix type="matrix" values="0 0 0 0 0 0 0 0 0 0 0 0 0 0 0 0 0 0 0.1 0"/>
<feBlend mode="normal" in2="effect1_innerShadow_348_8109" result="effect2_innerShadow_348_8109"/>
</filter>
<clipPath id="clip0_348_8109">
<rect width="24" height="24" fill="white" transform="translate(158 0.25)"/>
</clipPath>
</defs>
</svg>
