<?xml version="1.0" encoding="UTF-8"?>
<!DOCTYPE svg PUBLIC "-//W3C//DTD SVG 1.1//EN" "http://www.w3.org/Graphics/SVG/1.1/DTD/svg11.dtd">
<!-- Creator: CorelDRAW X7 -->
<svg xmlns="http://www.w3.org/2000/svg" xml:space="preserve" width="175.642mm" height="80.0544mm" version="1.1" style="shape-rendering:geometricPrecision; text-rendering:geometricPrecision; image-rendering:optimizeQuality; fill-rule:evenodd; clip-rule:evenodd"
viewBox="0 0 18270 8327"
 xmlns:xlink="http://www.w3.org/1999/xlink">
 <defs>
  <style type="text/css">
   <![CDATA[
    .fil4 {fill:none;fill-rule:nonzero}
    .fil0 {fill:#52C8EA}
    .fil3 {fill:#67BD5D}
    .fil1 {fill:#434B54}
    .fil2 {fill:#FEFEFE;fill-rule:nonzero}
   ]]>
  </style>
 </defs>
 <g id="__x0023_Layer_x0020_1">
  <metadata id="CorelCorpID_0Corel-Layer"/>
  <g id="_257832232">
   <g>
    <g>
     <path class="fil0" d="M2508 7059c0,-174 -4,-317 -14,-457l271 0 18 279 7 0c83,-160 278,-317 557,-317 234,0 596,140 596,718l0 1007 -307 0 0 -972c0,-272 -101,-499 -390,-499 -202,0 -359,143 -411,314 -14,38 -21,91 -21,143l0 1014 -306 0 0 -1230z"/>
     <path class="fil0" d="M5863 7432c0,623 -432,895 -840,895 -456,0 -808,-334 -808,-867 0,-565 369,-896 836,-896 484,0 812,352 812,868zm-1338 17l0 0c0,369 212,648 512,648 293,0 512,-275 512,-655 0,-286 -143,-648 -505,-648 -362,0 -519,335 -519,655z"/>
     <path class="fil0" d="M6145 7059c0,-174 -3,-317 -14,-457l272 0 17 279 7 0c84,-160 279,-317 558,-317 233,0 595,140 595,718l0 1007 -306 0 0 -972c0,-272 -101,-499 -390,-499 -202,0 -359,143 -411,314 -14,38 -21,91 -21,143l0 1014 -307 0 0 -1230z"/>
     <path class="fil0" d="M8096 6602l223 858c49,188 94,362 126,536l10 0c38,-171 94,-352 150,-533l275 -861 258 0 261 844c63,202 112,379 150,550l10 0c28,-171 74,-348 129,-547l241 -847 303 0 -544 1687 -278 0 -258 -805c-59,-188 -108,-355 -150,-554l-7 0c-42,202 -94,376 -153,557l-272 802 -279 0 -508 -1687 313 0z"/>
     <path class="fil0" d="M11960 7432c0,623 -432,895 -840,895 -456,0 -808,-334 -808,-867 0,-565 369,-896 836,-896 484,0 812,352 812,868zm-1338 17l0 0c0,369 213,648 512,648 293,0 512,-275 512,-655 0,-286 -142,-648 -505,-648 -362,0 -519,335 -519,655z"/>
     <path class="fil0" d="M12361 6602l331 948c55,153 101,293 136,432l10 0c38,-139 87,-279 143,-432l327 -948 321 0 -662 1687 -293 0 -641 -1687 328 0z"/>
     <path class="fil0" d="M13984 7501c7,415 272,586 579,586 219,0 351,-39 466,-88l53 220c-108,49 -293,105 -561,105 -519,0 -829,-342 -829,-851 0,-508 299,-909 790,-909 551,0 697,484 697,795 0,62 -7,111 -10,142l-1185 0zm899 -219l0 0c4,-195 -80,-498 -425,-498 -310,0 -446,285 -470,498l895 0z"/>
     <path class="fil0" d="M15455 7059c0,-174 -4,-317 -14,-457l271 0 18 279 7 0c83,-160 278,-317 557,-317 234,0 596,140 596,718l0 1007 -307 0 0 -972c0,-272 -101,-499 -390,-499 -202,0 -359,143 -411,314 -14,38 -21,91 -21,143l0 1014 -306 0 0 -1230z"/>
     <path class="fil0" d="M17242 7975c90,59 251,122 404,122 223,0 328,-111 328,-251 0,-146 -88,-226 -314,-310 -303,-108 -446,-275 -446,-477 0,-272 220,-495 582,-495 171,0 320,49 414,105l-76 223c-66,-42 -188,-98 -345,-98 -181,0 -282,105 -282,230 0,139 101,202 320,286 293,111 443,258 443,508 0,297 -230,506 -631,506 -185,0 -355,-46 -474,-116l77 -233z"/>
    </g>
   </g>
   <g>
    <g>
     <polygon class="fil1" points="6764,6190 5522,6190 6111,2465 5085,2465 5250,1414 8544,1414 8379,2465 7353,2465 "/>
     <polygon class="fil1" points="9627,2465 9500,3264 10900,3264 10736,4315 9336,4315 9203,5139 11018,5139 10853,6190 7796,6190 8550,1414 11607,1414 11443,2465 "/>
    </g>
   </g>
   <path class="fil2" d="M15534 6410c-841,0 -1456,-220 -1827,-653 -198,-230 -326,-521 -384,-870 -454,1012 -1338,1523 -2642,1523l-211 0 32 -209c202,-1309 843,-2117 1911,-2411 -324,-109 -583,-276 -777,-502 -375,-437 -499,-1090 -369,-1940l24 -153 155 0c841,0 1456,219 1827,652 199,231 327,521 384,870 454,-1011 1339,-1522 2642,-1522l211 0 -32 208c-201,1310 -842,2117 -1911,2411 324,109 584,277 777,502 376,437 500,1090 369,1940l-23 154 -156 0z"/>
   <g>
    <g>
     <path class="fil3" d="M11504 1444c1544,0 2198,772 1960,2317 -1544,0 -2197,-772 -1960,-2317zm1929 2399l0 0c-237,1545 -1128,2317 -2672,2317 237,-1544 1128,-2317 2672,-2317zm2786 -2399l0 0c-237,1545 -1128,2317 -2672,2317 237,-1545 1128,-2317 2672,-2317zm-2703 2399l0 0c1544,0 2198,773 1960,2317 -1544,0 -2197,-772 -1960,-2317z"/>
    </g>
   </g>
   <g>
    <g>
     <path class="fil1" d="M16441 1852c44,-278 299,-500 577,-500 277,0 463,222 419,500 -44,276 -300,498 -577,498 -278,0 -463,-222 -419,-498zm878 0l0 0c35,-224 -106,-382 -319,-382 -218,0 -405,158 -441,382 -35,222 102,380 320,380 214,0 405,-158 440,-380zm-181 253l0 0 -126 0 -82 -219 -80 0 -34 219 -116 0 82 -518 252 0c119,0 197,21 176,158 -15,96 -71,135 -164,141l92 219zm-137 -297l0 0c58,0 93,-12 103,-78 9,-53 -58,-53 -108,-53l-112 0 -22 131 139 0z"/>
    </g>
   </g>
   <g>
    <g>
     <polygon class="fil1" points="4545,0 6539,0 3618,2929 5784,6186 3700,6186 2051,3503 2035,3503 1608,6186 0,6186 976,0 2584,0 2182,2552 2199,2552 "/>
    </g>
   </g>
   <g>
    <g>
     <path class="fil4" d="M13478 3790c0,0 643,-746 964,-923 313,-172 -149,24 -913,965l-51 -42z"/>
    </g>
    <g>
     <path class="fil4" d="M13501 3790c0,0 -643,-746 -964,-923 -313,-172 149,24 913,965l51 -42z"/>
    </g>
    <g>
     <path class="fil4" d="M13478 3815c0,0 643,747 964,923 313,172 -149,-24 -913,-964l-51 41z"/>
    </g>
    <g>
     <path class="fil4" d="M13501 3815c0,0 -643,747 -964,923 -313,172 149,-24 913,-964l51 41z"/>
    </g>
   </g>
  </g>
 </g>
</svg>
