<svg width="200" height="200" viewBox="0 0 200 200" fill="none" xmlns="http://www.w3.org/2000/svg">
<g clip-path="url(#clip0_980_3071)">
<path fill-rule="evenodd" clip-rule="evenodd" d="M108 50.6669C119.289 49.4346 123.808 54.3234 121.555 65.3335C119.637 69.468 117.711 73.6162 115.778 77.778C110.328 86.085 103.291 87.7887 94.6665 82.8891C88.9071 76.8673 88.2404 70.2746 92.6665 63.1113C96.5141 57.3123 101.625 53.1641 108 50.6669Z" fill="#24292E"/>
<path fill-rule="evenodd" clip-rule="evenodd" d="M74.6666 57.7776C84.0542 56.7243 88.7209 60.8724 88.6666 70.222C86.8857 84.3015 78.8857 91.2644 64.6666 91.1109C55.4547 91.0849 51.1584 86.4923 51.7778 77.3331C54.3348 69.625 59.2978 64.0695 66.6666 60.6664C69.3869 59.6956 72.0536 58.7327 74.6666 57.7776Z" fill="#24292E"/>
<path fill-rule="evenodd" clip-rule="evenodd" d="M134.222 68.4444C144.386 68.4579 149.052 73.4949 148.222 83.5555C144.036 96.4787 135.221 101.886 121.778 99.7778C114.703 96.3511 112.259 90.7955 114.444 83.1111C115.964 80.7008 117.815 78.5527 120 76.6667C122.202 75.2065 124.275 73.5769 126.222 71.7778C128.773 70.2767 131.44 69.1656 134.222 68.4444Z" fill="#24292E"/>
<path fill-rule="evenodd" clip-rule="evenodd" d="M87.9998 90.2221C107.341 87.4095 114.082 95.2612 108.222 113.778C107.873 118.092 108.021 122.388 108.666 126.667C111.933 135.469 109.489 142.209 101.333 146.889C98.074 147.185 94.8144 147.185 91.5553 146.889C90.8968 145.737 91.045 144.7 91.9998 143.778C91.7663 143.47 91.47 143.248 91.1109 143.111C90.2851 144.011 89.5443 144.974 88.8887 146C84.9184 146.479 81.0666 146.034 77.3331 144.667C69.6204 139.473 62.5834 133.473 56.222 126.667C54.3983 124.353 52.9169 121.835 51.7776 119.111C51.0838 113.651 50.9357 108.17 51.3331 102.667C53.2065 98.2039 56.5398 95.463 61.3331 94.4444C70.3393 93.5272 79.2282 92.1198 87.9998 90.2221Z" fill="#24292E"/>
<path fill-rule="evenodd" clip-rule="evenodd" d="M121.333 104.444C126.224 104.37 131.113 104.444 136 104.667C143.762 106.207 146.947 110.873 145.556 118.667C144.642 121.234 143.383 123.605 141.778 125.778C138.129 129.648 134.129 133.129 129.778 136.222C119.167 139.4 112.575 135.622 110 124.889C108.164 114.77 111.942 107.955 121.333 104.444Z" fill="#24292E"/>
</g>
<defs>
<clipPath id="clip0_980_3071">
<rect width="100" height="100" fill="white" transform="translate(50 50)"/>
</clipPath>
</defs>
</svg>
